<?xml version="1.0" encoding="UTF-8"?>
<svg xmlns="http://www.w3.org/2000/svg" version="1.1" viewBox="0 0 400 57">
  <defs>
    <style>
      .cls-1 {
        fill: #fff;
      }
    </style>
  </defs>
  <!-- Generator: Adobe Illustrator 28.6.0, SVG Export Plug-In . SVG Version: 1.2.0 Build 709)  -->
  <g>
    <g id="Layer_1">
      <path class="cls-1" d="M19.8,13.1c.3-.9.5-2,.5-3C20.2,4.5,15.7,0,10.1,0s-2,.2-3,.5h0c0,0-.5.2-.5.2C3.3,1.9.7,4.9.1,8.5c0,0,0,.2,0,.3,0,.4,0,.9,0,1.3s0,0,0,0,0,0,0,0c0,5.6,4.5,10.1,10.1,10.1s0,0,0,0c0,0,0,0,0,0,.5,0,.9,0,1.3,0,0,0,.2,0,.3,0,3.7-.6,6.7-3.1,7.9-6.5l.2-.5h0ZM19.3,10.1c0,1.3-.3,2.5-.7,3.5-1.2.5-2.4.8-3.6.8-5.1,0-9.2-4.1-9.2-9.2s.3-2.4.8-3.6c1.1-.5,2.3-.7,3.5-.7,5.1,0,9.2,4.1,9.2,9.2Z"/>
      <g id="Layer_1-2" data-name="Layer_1">
        <g id="Layer_1-2">
          <g>
            <g>
              <polygon class="cls-1" points="237.4 27.1 239.5 27.1 240.3 17.9 249.1 17.9 249.1 38.8 242.7 38.8 242.7 41.4 258.8 41.4 258.8 38.8 252.5 38.8 252.5 17.9 261.6 17.9 262.3 27.1 264.5 27.1 264.5 15.3 237.4 15.3 237.4 27.1"/>
              <path class="cls-1" d="M291.4,30.7c-1.1-1-2.5-1.8-4.3-2.4s-3.6-1.1-5.6-1.6c-1.1-.3-2.2-.5-3.3-.8-1-.2-1.9-.5-2.7-.9-.8-.3-1.4-.8-1.9-1.3s-.7-1.2-.7-1.9.3-1.6,1-2.2c.6-.6,1.5-1.1,2.5-1.4s2.2-.5,3.4-.5,3.1.2,4.4.6,2.4.8,3.3,1.4,1.7,1.2,2.4,1.8l2.2-2.2c-.6-.6-1.5-1.2-2.5-1.9-1.1-.7-2.4-1.3-4-1.8-1.6-.5-3.4-.8-5.5-.8s-3.4.3-5,.8c-1.6.5-2.9,1.3-3.8,2.3-1,1-1.5,2.3-1.5,3.9s.3,2.7,1,3.6,1.5,1.6,2.6,2.1,2.2.9,3.4,1.2c1.2.3,2.4.6,3.6.9,1.6.4,3.2.8,4.6,1.2,1.5.4,2.6.9,3.5,1.5.9.6,1.4,1.4,1.4,2.3s-.3,1.7-1,2.4-1.7,1.2-3,1.6c-1.3.4-2.9.6-4.8.6s-3.2-.2-4.7-.7-2.8-1.1-4-1.9c-1.2-.7-2.2-1.5-3-2.2l-1.8,2.3c.9.9,2,1.7,3.3,2.6,1.3.8,2.9,1.5,4.6,2s3.6.8,5.6.8,4.4-.3,6.2-.9c1.8-.6,3.2-1.4,4.3-2.6,1-1.1,1.5-2.6,1.5-4.2s-.5-2.9-1.6-3.9v.2h-.1Z"/>
              <path class="cls-1" d="M168.8,28.3c-1.8-.6-3.6-1.1-5.6-1.6-1.1-.3-2.2-.5-3.3-.8-1-.2-1.9-.5-2.7-.9-.8-.3-1.4-.8-1.9-1.3s-.7-1.2-.7-1.9.3-1.6,1-2.2c.6-.6,1.5-1.1,2.5-1.4s2.2-.5,3.4-.5,3.1.2,4.4.6c1.3.4,2.4.8,3.3,1.4.9.6,1.7,1.2,2.4,1.8l2.2-2.2c-.6-.6-1.5-1.2-2.5-1.9-1.1-.7-2.4-1.3-4-1.8-1.6-.5-3.4-.8-5.5-.8s-3.4.3-5,.8c-1.6.5-2.9,1.3-3.8,2.3-1,1-1.5,2.3-1.5,3.9s.3,2.7,1,3.6,1.5,1.6,2.6,2.1,2.2.9,3.4,1.2c1.2.3,2.4.6,3.6.9,1.6.4,3.2.8,4.6,1.2,1.4.4,2.6.9,3.5,1.5.9.6,1.4,1.4,1.4,2.3s-.4,1.7-1,2.4c-.7.7-1.7,1.2-3,1.6-1.3.4-2.9.6-4.8.6s-3.2-.2-4.7-.7-2.8-1.1-4-1.9c-1.2-.7-2.2-1.5-3-2.2l-1.8,2.3c.8.9,1.9,1.7,3.3,2.6,1.3.8,2.9,1.5,4.6,2,1.7.5,3.6.8,5.6.8s4.4-.3,6.2-.9c1.8-.6,3.2-1.4,4.3-2.6,1-1.1,1.5-2.6,1.5-4.2s-.5-2.9-1.6-3.9-2.5-1.8-4.3-2.4v.2h0Z"/>
              <polygon class="cls-1" points="229.1 17.9 230.8 23.7 233.1 23.7 232.1 15.3 207.8 15.3 207.8 17.9 212.4 17.9 212.4 38.8 207.8 38.8 207.8 41.4 233.1 41.4 233.1 32.9 230.8 32.9 230.1 38.8 215.6 38.8 215.6 28.9 226 29.1 226 26.4 215.6 26.6 215.6 17.9 229.1 17.9"/>
              <path class="cls-1" d="M198.4,28.3c-1.8-.6-3.6-1.1-5.6-1.6-1.1-.3-2.2-.5-3.3-.8-1-.2-1.9-.5-2.7-.9-.8-.3-1.4-.8-1.9-1.3s-.7-1.2-.7-1.9.3-1.6,1-2.2c.6-.6,1.5-1.1,2.5-1.4s2.2-.5,3.4-.5,3.1.2,4.4.6c1.3.4,2.4.8,3.3,1.4.9.6,1.7,1.2,2.4,1.8l2.2-2.2c-.6-.6-1.5-1.2-2.5-1.9-1.1-.7-2.4-1.3-4-1.8-1.6-.5-3.4-.8-5.5-.8s-3.4.3-5,.8c-1.6.5-2.9,1.3-3.8,2.3-1,1-1.5,2.3-1.5,3.9s.3,2.7,1,3.6,1.5,1.6,2.6,2.1,2.2.9,3.4,1.2c1.2.3,2.4.6,3.6.9,1.6.4,3.2.8,4.6,1.2,1.4.4,2.6.9,3.5,1.5.9.6,1.4,1.4,1.4,2.3s-.4,1.7-1,2.4c-.7.7-1.7,1.2-3,1.6-1.3.4-2.9.6-4.8.6s-3.2-.2-4.7-.7-2.8-1.1-4-1.9c-1.2-.7-2.2-1.5-3-2.2l-1.8,2.3c.8.9,1.9,1.7,3.3,2.6,1.3.8,2.9,1.5,4.6,2,1.7.5,3.6.8,5.6.8s4.4-.3,6.2-.9c1.8-.6,3.2-1.4,4.3-2.6,1-1.1,1.5-2.6,1.5-4.2s-.5-2.9-1.6-3.9-2.5-1.8-4.3-2.4v.2h0Z"/>
              <path class="cls-1" d="M131,15.3h-8.1v2.6l7.1-.4-11,24.3h3.4l3.2-7.4h14.1l3,7.4h3.4l-11-26.6h-4.2.1ZM126.7,31.9l6.2-14.2,5.8,14.2s-12,0-12,0Z"/>
            </g>
            <g>
              <path class="cls-1" d="M309.9,35.8c.5-.6,1-1.1,1.6-1.6s1.2-1,1.8-1.4c.6-.4,1.2-.9,1.8-1.3.8-.6,1.7-1.2,2.6-2,.9-.7,1.8-1.5,2.6-2.4.8-.9,1.5-1.8,2-2.8s.8-2.1.8-3.2c0-1.9-.7-3.5-2-4.6-1.4-1.1-3.2-1.7-5.5-1.7s-3.5.4-4.9,1.1c-1.4.7-2.6,1.7-3.6,2.9s-1.7,2.5-2.1,3.9l3.2,1.5c.4-1,1-1.9,1.7-2.7.7-.8,1.5-1.5,2.5-2s2-.8,3.1-.8,2,.3,2.7.7c.6.5.9,1.2.9,2.1s-.2,1.2-.5,1.8c-.3.6-.8,1.2-1.3,1.8-.5.6-1.2,1.2-1.9,1.7-.7.6-1.4,1.1-2.2,1.6-1,.7-2,1.4-3,2.3-1,.8-1.9,1.7-2.8,2.6-.9.9-1.6,1.8-2.2,2.7s-1,1.8-1.2,2.7l1.3,2.5h18.1v-3.6h-14.8c.4-.7.9-1.3,1.4-1.9h-.1Z"/>
              <path class="cls-1" d="M344.9,16.3c-1.5-.9-3.3-1.4-5.2-1.4s-3.7.5-5.2,1.4-2.7,2.4-3.6,4.4-1.3,4.5-1.3,7.6.4,5.9,1.2,7.9c.8,2,2,3.4,3.5,4.2,1.5.9,3.3,1.3,5.4,1.3s3.9-.4,5.4-1.3c1.5-.9,2.7-2.3,3.5-4.2.8-2,1.2-4.6,1.2-7.9s-.4-5.7-1.3-7.6c-.9-2-2.1-3.4-3.6-4.4ZM344.9,34.1c-.4,1.4-1.1,2.4-2,3s-2,.9-3.2.9-2.4-.3-3.2-.9c-.9-.6-1.5-1.6-2-3-.4-1.4-.7-3.4-.7-5.8s.3-4.3.7-5.7c.5-1.4,1.2-2.5,2.1-3.1s1.9-.9,3-.9,2.2.3,3.1.9,1.6,1.7,2.1,3.1.8,3.3.8,5.7-.2,4.4-.7,5.8h0Z"/>
              <path class="cls-1" d="M359.8,35.8c.5-.6,1-1.1,1.6-1.6s1.2-1,1.8-1.4c.6-.4,1.2-.9,1.8-1.3.8-.6,1.7-1.2,2.6-2,.9-.7,1.8-1.5,2.6-2.4.8-.9,1.5-1.8,2-2.8s.8-2.1.8-3.2c0-1.9-.7-3.5-2-4.6-1.4-1.1-3.2-1.7-5.5-1.7s-3.5.4-4.9,1.1c-1.4.7-2.6,1.7-3.6,2.9s-1.7,2.5-2.1,3.9l3.2,1.5c.4-1,1-1.9,1.7-2.7.7-.8,1.5-1.5,2.5-2s2-.8,3.1-.8,2,.3,2.7.7c.6.5.9,1.2.9,2.1s-.2,1.2-.5,1.8c-.3.6-.8,1.2-1.3,1.8-.5.6-1.2,1.2-1.9,1.7-.7.6-1.4,1.1-2.2,1.6-1,.7-2,1.4-3,2.3-1,.8-1.9,1.7-2.8,2.6-.9.9-1.6,1.8-2.2,2.7s-1,1.8-1.2,2.7l1.3,2.5h18.1v-3.6h-14.8c.4-.7.9-1.3,1.4-1.9h-.1Z"/>
              <path class="cls-1" d="M398.2,26.1c-1.2-1.1-2.9-1.6-5-1.6s-3,.3-4.3.8c-1.3.6-2.6,1.3-3.7,2.2-.2.2-.4.4-.6.6l1.7-8.9h12.1v-3.8h-15.3l-2.7,14.7,3.8,1.4c.5-.6,1.1-1.1,1.9-1.6.7-.5,1.6-1,2.5-1.3s1.9-.5,2.8-.5c1.5,0,2.6.3,3.3,1,.7.7,1.1,1.5,1.1,2.6s-.4,2.2-1.2,3.2c-.8,1.1-1.9,2.1-3.4,3-1.4,1-3.1,1.8-5,2.7-1.9.8-3.9,1.6-6,2.2l1,3.1c2.5-.7,4.9-1.5,7.2-2.4,2.3-.9,4.3-2,6-3.3,1.7-1.2,3.1-2.6,4.1-4.2,1-1.6,1.5-3.2,1.5-5.1s-.6-3.8-1.8-4.9h0Z"/>
            </g>
          </g>
        </g>
      </g>
      <path class="cls-1" d="M92.8,32.3l13.7,23.7h-27.3l13.7-23.7M92.8,30.3l-15.4,26.7h30.8l-15.4-26.7h0Z"/>
      <polyline class="cls-1" points="55.7 26.6 55.7 26.6 55.7 26.6 55.2 25.8 54.8 26.6 52 26.6 53.8 23.4 53.4 22.6 51 26.6 48.2 26.6 52 20.1 51.5 19.3 47.3 26.6 44.5 26.6 50.1 16.9 49.6 16.1 43.5 26.6 40.7 26.6 48.2 13.7 47.8 12.9 39.8 26.6 37 26.6 46.3 10.4 45.9 9.6 36.1 26.6 33.2 26.6 44.5 7.2 44 6.4 32.3 26.6 29.5 26.6 42.6 3.9 42.1 3.1 28.6 26.6 25.8 26.6 40.7 .7 40.3 -.1 24.8 26.6 24.8 26.6"/>
      <polygon class="cls-1" points="55.7 26.6 55.7 26.6 54.8 26.6 54.8 26.6 54.3 27.4 54.3 27.4 37.7 56.2 8.7 56.2 25.3 27.4 25.3 27.4 25.8 26.6 24.8 26.6 7.3 57 38.2 57 55.7 26.6 55.7 26.6"/>
      <polyline class="cls-1" points="90.8 26.6 90.7 26.6 90.7 26.6 90.3 25.8 89.8 26.6 87 26.6 88.9 23.4 88.4 22.6 86.1 26.6 83.3 26.6 87 20.1 86.5 19.3 82.3 26.6 79.5 26.6 85.1 16.9 84.7 16.1 78.6 26.6 75.8 26.6 83.3 13.7 82.8 12.9 74.9 26.6 72 26.6 81.4 10.4 80.9 9.6 71.1 26.6 68.3 26.6 79.5 7.2 79.1 6.4 67.4 26.6 64.6 26.6 77.7 3.9 77.2 3.1 63.6 26.6 60.8 26.6 75.8 .7 75.3 -.1 59.9 26.6 59.9 26.6"/>
      <polygon class="cls-1" points="90.7 26.6 90.7 26.6 89.8 26.6 89.8 26.6 89.4 27.4 89.4 27.4 72.7 56.2 43.7 56.2 60.4 27.4 60.4 27.4 60.8 26.6 59.9 26.6 42.3 57 73.2 57 90.8 26.6 90.7 26.6"/>
    </g>
  </g>
</svg>