<?xml version="1.0" encoding="UTF-8"?>
<svg id="Layer_1" xmlns="http://www.w3.org/2000/svg" version="1.1" viewBox="0 0 284.2 57">
  <!-- Generator: Adobe Illustrator 29.1.0, SVG Export Plug-In . SVG Version: 2.1.0 Build 142)  -->
  <defs>
    <style>
      .st0 {
        fill: #1968be;
      }

      .st1 {
        fill: #f03700;
      }

      .st2 {
        fill: #fbfeff;
      }
    </style>
  </defs>
  <circle class="st1" cx="-103.9" cy="10" r="10"/>
  <polygon class="st0" points="121.6 27.1 123.7 27.1 124.5 17.9 133.3 17.9 133.3 38.8 126.9 38.8 126.9 41.4 143 41.4 143 38.8 136.7 38.8 136.7 17.9 145.8 17.9 146.5 27.1 148.7 27.1 148.7 15.3 121.6 15.3 121.6 27.1"/>
  <path class="st0" d="M175.6,30.7c-1.1-1-2.5-1.8-4.3-2.4s-3.6-1.1-5.6-1.6c-1.1-.3-2.2-.5-3.3-.8-1-.2-1.9-.5-2.7-.9-.8-.3-1.4-.8-1.9-1.3s-.7-1.2-.7-1.9.3-1.6,1-2.2c.6-.6,1.5-1.1,2.5-1.4s2.2-.5,3.4-.5,3.1.2,4.4.6,2.4.8,3.3,1.4,1.7,1.2,2.4,1.8l2.2-2.2c-.6-.6-1.5-1.2-2.5-1.9-1.1-.7-2.4-1.3-4-1.8-1.6-.5-3.4-.8-5.5-.8s-3.4.3-5,.8c-1.6.5-2.9,1.3-3.8,2.3-1,1-1.5,2.3-1.5,3.9s.3,2.7,1,3.6,1.5,1.6,2.6,2.1,2.2.9,3.4,1.2c1.2.3,2.4.6,3.6.9,1.6.4,3.2.8,4.6,1.2,1.5.4,2.6.9,3.5,1.5.9.6,1.4,1.4,1.4,2.3s-.3,1.7-1,2.4-1.7,1.2-3,1.6c-1.3.4-2.9.6-4.8.6s-3.2-.2-4.7-.7-2.8-1.1-4-1.9c-1.2-.7-2.2-1.5-3-2.2l-1.8,2.3c.9.9,2,1.7,3.3,2.6,1.3.8,2.9,1.5,4.6,2s3.6.8,5.6.8,4.4-.3,6.2-.9c1.8-.6,3.2-1.4,4.3-2.6,1-1.1,1.5-2.6,1.5-4.2s-.5-2.9-1.6-3.9v.2h-.1Z"/>
  <path class="st0" d="M53,28.3c-1.8-.6-3.6-1.1-5.6-1.6-1.1-.3-2.2-.5-3.3-.8-1-.2-1.9-.5-2.7-.9-.8-.3-1.4-.8-1.9-1.3s-.7-1.2-.7-1.9.3-1.6,1-2.2c.6-.6,1.5-1.1,2.5-1.4s2.2-.5,3.4-.5,3.1.2,4.4.6c1.3.4,2.4.8,3.3,1.4.9.6,1.7,1.2,2.4,1.8l2.2-2.2c-.6-.6-1.5-1.2-2.5-1.9-1.1-.7-2.4-1.3-4-1.8-1.6-.5-3.4-.8-5.5-.8s-3.4.3-5,.8c-1.6.5-2.9,1.3-3.8,2.3-1,1-1.5,2.3-1.5,3.9s.3,2.7,1,3.6,1.5,1.6,2.6,2.1,2.2.9,3.4,1.2c1.2.3,2.4.6,3.6.9,1.6.4,3.2.8,4.6,1.2,1.4.4,2.6.9,3.5,1.5.9.6,1.4,1.4,1.4,2.3s-.4,1.7-1,2.4c-.7.7-1.7,1.2-3,1.6-1.3.4-2.9.6-4.8.6s-3.2-.2-4.7-.7-2.8-1.1-4-1.9c-1.2-.7-2.2-1.5-3-2.2l-1.8,2.3c.8.9,1.9,1.7,3.3,2.6,1.3.8,2.9,1.5,4.6,2,1.7.5,3.6.8,5.6.8s4.4-.3,6.2-.9c1.8-.6,3.2-1.4,4.3-2.6,1-1.1,1.5-2.6,1.5-4.2s-.5-2.9-1.6-3.9-2.5-1.8-4.3-2.4v.2h0Z"/>
  <polygon class="st0" points="113.3 17.9 115 23.7 117.3 23.7 116.3 15.3 92 15.3 92 17.9 96.6 17.9 96.6 38.8 92 38.8 92 41.4 117.3 41.4 117.3 32.9 115 32.9 114.3 38.8 99.8 38.8 99.8 28.9 110.2 29.1 110.2 26.4 99.8 26.6 99.8 17.9 113.3 17.9"/>
  <path class="st0" d="M82.6,28.3c-1.8-.6-3.6-1.1-5.6-1.6-1.1-.3-2.2-.5-3.3-.8-1-.2-1.9-.5-2.7-.9-.8-.3-1.4-.8-1.9-1.3s-.7-1.2-.7-1.9.3-1.6,1-2.2c.6-.6,1.5-1.1,2.5-1.4s2.2-.5,3.4-.5,3.1.2,4.4.6c1.3.4,2.4.8,3.3,1.4.9.6,1.7,1.2,2.4,1.8l2.2-2.2c-.6-.6-1.5-1.2-2.5-1.9-1.1-.7-2.4-1.3-4-1.8-1.6-.5-3.4-.8-5.5-.8s-3.4.3-5,.8c-1.6.5-2.9,1.3-3.8,2.3-1,1-1.5,2.3-1.5,3.9s.3,2.7,1,3.6,1.5,1.6,2.6,2.1,2.2.9,3.4,1.2c1.2.3,2.4.6,3.6.9,1.6.4,3.2.8,4.6,1.2,1.4.4,2.6.9,3.5,1.5.9.6,1.4,1.4,1.4,2.3s-.4,1.7-1,2.4c-.7.7-1.7,1.2-3,1.6-1.3.4-2.9.6-4.8.6s-3.2-.2-4.7-.7-2.8-1.1-4-1.9c-1.2-.7-2.2-1.5-3-2.2l-1.8,2.3c.8.9,1.9,1.7,3.3,2.6,1.3.8,2.9,1.5,4.6,2,1.7.5,3.6.8,5.6.8s4.4-.3,6.2-.9c1.8-.6,3.2-1.4,4.3-2.6,1-1.1,1.5-2.6,1.5-4.2s-.5-2.9-1.6-3.9-2.5-1.8-4.3-2.4v.2h0Z"/>
  <path class="st0" d="M15.2,15.3H7.1v2.6l7.1-.4L3.2,41.8h3.4l3.2-7.4h14.1l3,7.4h3.4l-11-26.6h-4.2.1ZM10.9,31.9l6.2-14.2,5.8,14.2s-12,0-12,0Z"/>
  <polygon class="st0" points="-21.1 30.3 -36.5 57 -5.7 57 -21.1 30.3"/>
  <polygon class="st2" points="-38.6 0 -23.2 26.7 -54 26.7 -38.6 0"/>
  <polygon class="st2" points="-89 26.7 -58.2 26.7 -73.6 0 -89 26.7"/>
  <path class="st0" d="M-58.2,26.7h0L-73.6,0l-15.4,26.7h0l-17.5,30.3h30.8l17.5-30.3h0ZM-73.6,1.6l14,24.3h-28L-73.6,1.6Z"/>
  <path class="st0" d="M-23.2,26.7h0L-38.6,0l-15.4,26.7h0l-17.5,30.3h30.8l17.5-30.3h0ZM-38.6,1.6l14,24.3h-28L-38.6,1.6Z"/>
  <g>
    <path class="st1" d="M201.3,41.4c-.2,0-1.7,0-4.4,0s-4.7,0-6,0c-1.8,0-4.1,0-6.6,0s-3.9,0-4.1,0l-.9-2.6c1.3-.6,2.8-1.5,4.6-2.4s3.1-1.8,4.1-2.6c1.5-1.2,2.7-2.3,3.5-3.4.8-1.1,1.2-2.3,1.2-3.8s-.3-2.1-.8-2.9c-.5-.8-1.2-1.4-2.1-1.9-.8-.4-1.8-.7-2.9-.9s-2.2-.3-3.5-.3-.9,0-1.4,0-1,0-1.4,0l.3-3.1c.3,0,.7,0,1.2,0s1.1,0,1.7,0c1.7,0,3.2.1,4.5.4,1.3.2,2.6.6,3.7,1.2,1.4.7,2.6,1.6,3.4,2.8.8,1.2,1.2,2.6,1.2,4.3s-.3,2.7-1,3.9c-.6,1.2-1.4,2.3-2.4,3.2-1,1-2.2,1.9-3.6,2.8s-2.8,1.7-4.2,2.4h0c.7,0,1.5,0,2.5,0s2,0,3-.1c2,0,4.1,0,6.5,0s3.6,0,3.9,0v3.2Z"/>
    <path class="st1" d="M229.1,29.6c0,1.9-.3,3.6-.9,5.2s-1.5,2.9-2.7,4c-1.1,1.1-2.4,1.9-3.9,2.5s-3.1.9-4.8.9-3.3-.3-4.8-.9-2.8-1.4-3.8-2.5-2.1-2.5-2.7-4.1-.9-3.3-.9-5.1.3-3.5.9-4.9,1.4-2.8,2.4-3.9c1-1.1,2.3-2,3.9-2.6s3.2-1,5.1-1,3.5.3,5,.9,2.8,1.5,3.8,2.6c1.1,1.2,2,2.5,2.5,4s.9,3.2.9,5.1ZM225.3,29.8c0-1.5-.2-2.9-.7-4.2s-1.1-2.4-2-3.2c-.7-.8-1.6-1.3-2.5-1.7s-2-.6-3.2-.6-2.5.2-3.4.7-1.7,1-2.4,1.7c-.8.8-1.5,1.9-2,3.2s-.7,2.6-.7,4,.2,2.9.7,4.1,1.2,2.4,2.2,3.3c.7.7,1.5,1.2,2.4,1.6s2,.6,3.1.6,2.2-.2,3.2-.6,1.8-.9,2.5-1.6c.9-.9,1.6-1.9,2.1-3.2s.7-2.6.7-4Z"/>
    <path class="st1" d="M255.7,41.4c-.2,0-1.7,0-4.4,0s-4.7,0-6,0c-1.8,0-4.1,0-6.6,0s-3.9,0-4.1,0l-.9-2.6c1.3-.6,2.8-1.5,4.6-2.4s3.1-1.8,4.1-2.6c1.5-1.2,2.7-2.3,3.5-3.4.8-1.1,1.2-2.3,1.2-3.8s-.3-2.1-.8-2.9c-.5-.8-1.2-1.4-2.1-1.9-.8-.4-1.8-.7-2.9-.9s-2.2-.3-3.5-.3-.9,0-1.4,0-1,0-1.4,0l.3-3.1c.3,0,.7,0,1.2,0s1.1,0,1.7,0c1.7,0,3.2.1,4.5.4,1.3.2,2.6.6,3.7,1.2,1.4.7,2.6,1.6,3.4,2.8.8,1.2,1.2,2.6,1.2,4.3s-.3,2.7-1,3.9c-.6,1.2-1.4,2.3-2.4,3.2-1,1-2.2,1.9-3.6,2.8s-2.8,1.7-4.2,2.4h0c.7,0,1.5,0,2.5,0s2,0,3-.1c2,0,4.1,0,6.5,0s3.6,0,3.9,0v3.2Z"/>
    <path class="st1" d="M281.4,31.4c0,1.4-.3,2.8-.9,4.2s-1.4,2.5-2.3,3.4c-1,1-2.2,1.8-3.5,2.3s-2.7.8-4.3.8-3-.2-4.4-.7-2.6-1.3-3.8-2.3c-.9-.8-1.6-1.9-2.1-3.1s-.8-2.6-.8-4.3.3-3.4,1-5,2-3.7,4.1-6.1c2-2.3,3.9-4.5,5.7-6.4s3.4-3.7,4.8-5.1l2.7,2.2c-1.1,1.2-2.6,2.7-4.5,4.6-1.8,1.9-3.3,3.4-4.5,4.6h0c1,.2,2.2.4,3.5.8s2.5.9,3.7,1.5c1.8,1,3.2,2.3,4.2,3.8s1.4,3.2,1.4,5.1ZM277.6,31.7c0-1.5-.4-2.8-1.3-4s-2.1-2.2-3.7-3c-.9-.5-2-.8-3.2-1.1s-2.1-.4-2.8-.5c-1.1,1.1-1.9,2.4-2.6,3.9s-1,3-1,4.5.2,2.2.6,3.2,1,1.8,1.6,2.4c.7.7,1.4,1.1,2.3,1.5s1.8.5,2.8.5,2-.2,2.9-.6,1.6-.9,2.2-1.4c.7-.7,1.2-1.5,1.6-2.5s.5-2,.5-3Z"/>
  </g>
</svg>