<?xml version="1.0" encoding="UTF-8"?>
<svg id="Layer_1" xmlns="http://www.w3.org/2000/svg" version="1.1" viewBox="0 0 286.2 57">
  <!-- Generator: Adobe Illustrator 29.1.0, SVG Export Plug-In . SVG Version: 2.1.0 Build 142)  -->
  <defs>
    <style>
      .st0 {
        font-family: MarkerFelt-Wide, 'Marker Felt';
        font-size: 39.2px;
      }

      .st0, .st1 {
        fill: #fff;
      }

      .st2 {
        fill: #ffde00;
      }

      .st3 {
        fill: #085c3b;
      }

      .st4 {
        fill: #8876ff;
      }
    </style>
  </defs>
  <circle class="st3" cx="-102.9" cy="10" r="10"/>
  <path class="st2" d="M-97.9,15c-5.5,0-10-4.5-10-10s.3-2.8.9-4.1c-3.5,1.6-5.9,5-5.9,9.1s4.5,10,10,10,7.5-2.4,9.1-5.9c-1.3.6-2.6.9-4.1.9Z"/>
  <polygon class="st4" points="-88 26.7 -105.5 57 -74.7 57 -57.2 26.7 -88 26.7"/>
  <polygon class="st4" points="-20.1 30.3 -35.5 57 -4.7 57 -20.1 30.3"/>
  <polygon class="st4" points="-53 26.7 -70.5 57 -39.7 57 -22.2 26.7 -53 26.7"/>
  <path class="st1" d="M-37.6,0l15.4,26.7h-30.8L-37.6,0ZM-88,26.7h30.8L-72.6,0l-15.4,26.7Z"/>
  <text class="st0" transform="translate(7.6 41.8) scale(1.2 1)"><tspan x="0" y="0">ASSETS2026</tspan></text>
</svg>