<?xml version="1.0" encoding="UTF-8"?>
<svg xmlns="http://www.w3.org/2000/svg" version="1.1" viewBox="0 0 400 57">
  <defs>
    <style>
      .cls-1 {
        fill: #8876ff;
      }

      .cls-2 {
        fill: #ffde00;
      }

      .cls-3 {
        fill: #085c3b;
      }

      .cls-4 {
        fill: #fff;
      }
    </style>
  </defs>
  <!-- Generator: Adobe Illustrator 28.6.0, SVG Export Plug-In . SVG Version: 1.2.0 Build 709)  -->
  <g>
    <g id="Layer_1">
      <circle class="cls-3" cx="9.9999849" cy="9.9999849" r="9.9999849"/>
      <path class="cls-2" d="M14.9997358,15.0007313c-5.5227102,0-10.0004774-4.4777672-10.0004774-10.0024379,0-1.4625282.3489678-2.8309526.9155505-4.0817475C2.4388539,2.4810198,0,5.9393303,0,10.0014729c0,5.5207497,4.4758067,9.9985169,9.9985169,9.9985169,4.0582216,0,7.5184926-2.4427749,9.0849269-5.9167694-1.2527553.5685431-2.6192193.917511-4.083708.917511Z"/>
      <g>
        <polygon class="cls-1" points="24.8862721 26.6666269 7.3849466 56.9836984 38.1764575 56.9836984 55.677783 26.6666269 24.8862721 26.6666269"/>
        <polygon class="cls-1" points="92.7918855 30.3170658 77.39613 56.9836984 108.1896015 56.9836984 92.7918855 30.3170658"/>
        <polygon class="cls-1" points="59.8928441 26.6666269 42.3915186 56.9836984 73.1830295 56.9836984 90.684355 26.6666269 59.8928441 26.6666269"/>
      </g>
      <path class="cls-4" d="M75.2890807,0l15.3962496,26.6669897h-30.7923433L75.2890807,0ZM24.8863164,26.6669897h30.7923433L40.2824101,0l-15.3960937,26.6669897Z"/>
      <g>
        <g>
          <polygon class="cls-4" points="237.379138 27.0542632 239.5253093 27.0542632 240.2919105 17.9065199 249.1082138 17.9065199 249.1082138 38.7583837 242.7453461 38.7583837 242.7453461 41.3646717 258.8190152 41.3646717 258.8190152 38.7583837 252.4561475 38.7583837 252.4561475 17.9065199 261.5532001 17.9065199 262.3198012 27.0542632 264.4667524 27.0542632 264.4667524 15.3002319 237.379138 15.3002319 237.379138 27.0542632"/>
          <path class="cls-4" d="M291.386486,30.6572108c-1.0793245-.9873012-2.4978876-1.788996-4.2549094-2.401965-1.7531225-.612969-3.6349217-1.1401535-5.6473473-1.5831133-1.1405434-.2557937-2.2261069-.5084679-3.25786-.7549033-1.0286337-.2464354-1.9457476-.5396623-2.7474424-.8812404-.7985754-.3415781-1.4310408-.767381-1.8911575-1.2774087-.4597267-.5115874-.6897851-1.1604298-.6897851-1.9434081,0-.8516058.3193522-1.5862327.9580565-2.2101198.6390943-.6223273,1.4825115-1.0980411,2.5302518-1.430261,1.0477403-.3322198,2.1847743-.4991096,3.4114922-.4991096,1.6353638,0,3.0890206.1887258,4.3570709.563058,1.2711698.3727725,2.3731102.8469266,3.3089408,1.4177832.9393399.5724163,1.7476635,1.1729076,2.4277003,1.8014738l2.197642-2.1726865c-.612969-.5958121-1.4563863-1.2415352-2.5298618-1.9418483-1.0730857-.6987535-2.3957261-1.2992447-3.9733804-1.8014738-1.5749248-.5006693-3.4118821-.7533436-5.5069727-.7533436-1.7535124,0-3.4177311.2557937-4.9961652.7658213-1.5745349.5115874-2.8554529,1.2820878-3.8454836,2.3130611-.9873012,1.032533-1.4825115,2.3380166-1.4825115,3.9226896,0,1.4817317.3291004,2.6733559.9841818,3.577992.6578109.9046362,1.5137059,1.6127479,2.5680749,2.1336936,1.0574885.5209457,2.197642.9295917,3.4243599,1.225938,1.2267178.297906,2.4113233.6004913,3.5518668.9077556,1.6357538.3930488,3.1783144.8016948,4.6253424,1.225938,1.4501474.4258029,2.6257845.9358305,3.5265214,1.5347621.9042462.5958121,1.3542248,1.369432,1.3542248,2.3239791,0,.9046362-.347817,1.7032116-1.0473503,2.401965-.6964139.7003132-1.7028216,1.2493337-3.0157139,1.6486214-1.3093829.3992877-2.9131624.6004913-4.80393.6004913-1.667728,0-3.2391434-.2448757-4.7150261-.7408658-1.4723734-.4944305-2.7981333-1.1120786-3.9737704-1.8529444-1.1756371-.7408658-2.1625484-1.4786122-2.9642432-2.2101198l-1.7886061,2.3005834c.8527756.8843598,1.9515966,1.7375253,3.296463,2.5548173,1.347596.817292,2.8874271,1.4926497,4.6253424,2.0182745,1.7375253.5271845,3.6126957.7923365,5.6220019.7923365,2.31891,0,4.3792969-.2901075,6.18428-.8687627,1.8077126-.5770955,3.2258858-1.4396193,4.2545195-2.5797728,1.0317532-1.1417132,1.54607-2.556377,1.54607-4.2424317,0-1.6002702-.5396623-2.8979552-1.6228861-3.8852564Z"/>
          <path class="cls-4" d="M168.7732563,28.2552458c-1.7570218-.612969-3.6380412-1.1401535-5.6477372-1.5831133-1.143273-.2557937-2.2296162-.5084679-3.25786-.7549033-1.0317532-.2464354-1.9484771-.5396623-2.7470525-.8812404-.8016948-.3415781-1.4310408-.767381-1.8911575-1.2774087-.4601167-.5115874-.690175-1.1604298-.690175-1.9434081,0-.8516058.3197421-1.5862327.9584464-2.2101198.6387043-.6223273,1.4821216-1.0980411,2.5298618-1.430261,1.0477403-.3322198,2.1851643-.4991096,3.4118821-.4991096,1.6353638,0,3.0851213.1887258,4.356681.563058,1.2684403.3727725,2.3703807.8469266,3.3093307,1.4177832.9358305.5724163,1.7441541,1.1729076,2.4277003,1.8014738l2.197642-2.1726865c-.6133589-.5958121-1.4567762-1.2415352-2.5298618-1.9418483-1.0730857-.6987535-2.3988456-1.2992447-3.9737704-1.8014738-1.5780442-.5006693-3.4114922-.7533436-5.5069727-.7533436-1.7570218,0-3.4212404.2557937-4.9957753.7658213-1.5780442.5115874-2.8589622,1.2820878-3.8462634,2.3130611-.9900307,1.032533-1.4817317,2.3380166-1.4817317,3.9226896,0,1.4817317.325591,2.6733559.9834019,3.577992.6550814.9046362,1.5113663,1.6127479,2.5684649,2.1336936,1.0539791.5209457,2.197642.9295917,3.4243599,1.225938,1.2263279.297906,2.4085938.6004913,3.5518668.9077556,1.6353638.3930488,3.1755849.8016948,4.6253424,1.225938,1.4474179.4258029,2.622665.9358305,3.5265214,1.5347621.9007369.5958121,1.3546147,1.369432,1.3546147,2.3239791,0,.9046362-.3517163,1.7032116-1.0477403,2.401965-.6995333.7003132-1.7059411,1.2493337-3.0153239,1.6486214-1.3132822.3992877-2.9135524.6004913-4.8043199.6004913-1.6708474,0-3.2422628-.2448757-4.7146362-.7408658-1.4762726-.4944305-2.7981333-1.1120786-3.9741603-1.8529444-1.1752472-.7408658-2.1656678-1.4786122-2.9642432-2.2101198l-1.7886061,2.3005834c.8496561.8843598,1.9484771,1.7375253,3.296463,2.5548173,1.3448664.817292,2.8874271,1.4926497,4.6253424,2.0182745,1.7379153.5271845,3.6095763.7923365,5.6220019.7923365,2.3157906,0,4.3761775-.2901075,6.1838901-.8687627,1.8049831-.5770955,3.2231563-1.4396193,4.2549094-2.5797728,1.0286337-1.1417132,1.5464599-2.556377,1.5464599-4.2424317,0-1.6002702-.5435616-2.8979552-1.6228861-3.8852564-1.0832238-.9873012-2.5010071-1.788996-4.2549094-2.401965Z"/>
          <polygon class="cls-4" points="229.1296132 17.9065199 230.765367 23.7320649 233.0905159 23.7320649 232.068511 15.3002319 207.7915075 15.3002319 207.7915075 17.9065199 212.3915045 17.9065199 212.3915045 38.7583837 207.7915075 38.7583837 207.7915075 41.3646717 233.0905159 41.3646717 233.0905159 32.9328386 230.765367 32.9328386 230.075192 38.7583837 215.6368868 38.7583837 215.6368868 28.8947299 225.9606571 29.1240084 225.9606571 26.3898236 215.6368868 26.6206618 215.6368868 17.9065199 229.1296132 17.9065199"/>
          <path class="cls-4" d="M198.3640061,28.2552458c-1.7570218-.612969-3.638821-1.1401535-5.6477372-1.5831133-1.1436629-.2557937-2.2296162-.5084679-3.2582499-.7549033-1.0317532-.2464354-1.9484771-.5396623-2.7470525-.8812404-.8020847-.3415781-1.4310408-.767381-1.8911575-1.2774087-.4597267-.5115874-.6897851-1.1604298-.6897851-1.9434081,0-.8516058.3193522-1.5862327.9584464-2.2101198.6387043-.6223273,1.4817317-1.0980411,2.5298618-1.430261,1.0473503-.3322198,2.1843844-.4991096,3.4111023-.4991096,1.6357538,0,3.0859011.1887258,4.3570709.563058,1.2680504.3727725,2.3703807.8469266,3.3097206,1.4177832.9358305.5724163,1.7437642,1.1729076,2.4273104,1.8014738l2.1980319-2.1726865c-.6137489-.5958121-1.4567762-1.2415352-2.5302518-1.9418483-1.0734756-.6987535-2.3988456-1.2992447-3.9737704-1.8014738-1.5776543-.5006693-3.4111023-.7533436-5.5065828-.7533436-1.7570218,0-3.4212404.2557937-4.9961652.7658213-1.5780442.5115874-2.8589622,1.2820878-3.8458735,2.3130611-.9904206,1.032533-1.4821216,2.3380166-1.4821216,3.9226896,0,1.4817317.325591,2.6733559.9837918,3.577992.6550814.9046362,1.5109764,1.6127479,2.5680749,2.1336936,1.0543691.5209457,2.197642.9295917,3.4243599,1.225938,1.2267178.297906,2.4085938.6004913,3.5522567.9077556,1.6353638.3930488,3.174805.8016948,4.6253424,1.225938,1.446638.4258029,2.622665.9358305,3.5265214,1.5347621.9007369.5958121,1.3542248,1.369432,1.3542248,2.3239791,0,.9046362-.3513264,1.7032116-1.0477403,2.401965-.6995333.7003132-1.7055511,1.2493337-3.0153239,1.6486214-1.3128922.3992877-2.9131624.6004913-4.8043199.6004913-1.6704575,0-3.2422628-.2448757-4.7150261-.7408658-1.4754928-.4944305-2.7981333-1.1120786-3.9733804-1.8529444-1.1756371-.7408658-2.1656678-1.4786122-2.9642432-2.2101198l-1.788996,2.3005834c.8496561.8843598,1.9484771,1.7375253,3.296463,2.5548173,1.3448664.817292,2.887817,1.4926497,4.6253424,2.0182745,1.7375253.5271845,3.6095763.7923365,5.6220019.7923365,2.3161805,0,4.3761775-.2901075,6.18428-.8687627,1.8045932-.5770955,3.2231563-1.4396193,4.2549094-2.5797728,1.0286337-1.1417132,1.5456801-2.556377,1.5456801-4.2424317,0-1.6002702-.5427817-2.8979552-1.6224962-3.8852564-1.0828339-.9873012-2.501397-1.788996-4.2545195-2.401965Z"/>
          <path class="cls-4" d="M130.9542563,15.2995114h-8.0750476v2.6312435l7.0573319-.3790114-10.9928892,24.323795h3.4243599l3.2364139-7.410218h14.1466381l3.009475,7.410218h3.4243599l-11.0139454-26.5760271h-4.2166964ZM126.743019,31.8574728l6.1912988-14.1762727,5.7576973,14.1762727h-11.9489961Z"/>
        </g>
        <g>
          <path class="cls-2" d="M309.9216912,35.7869137c.5047313-.5678227,1.0455148-1.0995931,1.6223505-1.5862983.5678227-.4867052,1.1626845-.9553842,1.7665595-1.3970241.612888-.4416399,1.2077498-.8652536,1.7935986-1.2798543.8201883-.5858488,1.6854419-1.2438021,2.5957608-1.9828729.9103189-.7300577,1.7755725-1.5322199,2.5957608-2.4064866.8111753-.8652536,1.4781416-1.8026117,1.9918859-2.8030612.5137443-1.0004495.775123-2.0549773.775123-3.1635835,0-1.9197814-.6759794-3.4520014-2.0279382-4.5786337s-3.1816096-1.694455-5.5069787-1.694455c-1.847677,0-3.4700275.3605223-4.8850777,1.081567-1.4150502.7210447-2.6047739,1.6764289-3.5601581,2.8661526s-1.6674158,2.4876041-2.1360949,3.8846282l3.1906227,1.5232069c.3965746-.9553842.9553842-1.85669,1.6584028-2.6949045.7120316-.8292014,1.541233-1.5051808,2.4966172-2.0279382.9553842-.5227574,1.9918859-.7841361,3.1185182-.7841361,1.1446584,0,2.0279382.2523656,2.6588522.7480839.6309141.5047313.9463711,1.1897237.9463711,2.0549773,0,.5768357-.1712481,1.1716976-.4957182,1.7755725-.3244701.6038749-.76611,1.2077498-1.3249196,1.8116247-.5497966.6038749-1.1716976,1.1807107-1.8657031,1.7395203-.6940055.5678227-1.4150502,1.0995931-2.163134,1.6043244-1.0004495.6849924-2.009912,1.4420894-3.0103615,2.2712907-1.0004495.8382144-1.9378076,1.7124811-2.8030612,2.6318131-.8652536.9103189-1.6043244,1.8296509-2.2081993,2.7489828-.612888.919332-1.0184756,1.8206378-1.2167629,2.6858914l1.3249196,2.5236564h18.1252605v-3.6412756h-14.8264812c.4055876-.6940055.8562406-1.3339327,1.3699849-1.9107684Z"/>
          <path class="cls-2" d="M344.9320155,16.3096944c-1.5232069-.9373581-3.2627272-1.4150502-5.2275739-1.4150502-1.9468206,0-3.6863409.4776921-5.2095478,1.4150502-1.5232069.9463711-2.7219437,2.3974735-3.5962103,4.3803464-.8742667,1.9738598-1.3068935,4.5155423-1.3068935,7.6250474,0,3.3168055.4055876,5.9486186,1.234789,7.9134653.8201883,1.9648467,1.9828729,3.3708839,3.4880536,4.2271244,1.5141938.8562406,3.3077925,1.2798543,5.389809,1.2798543s3.8846282-.4236137,5.398822-1.2798543,2.6858914-2.2622777,3.5060797-4.2271244c.8201883-1.9648467,1.234789-4.5966598,1.234789-7.9134653,0-3.1095052-.4416399-5.6511876-1.3159065-7.6250474-.8742667-1.9828729-2.0730034-3.4339753-3.5962103-4.3803464ZM344.9230024,34.137524c-.4416399,1.4240632-1.1086062,2.4335258-1.9828729,3.0464138-.8742667.6038749-1.9558337.9103189-3.235688.9103189s-2.3614213-.306444-3.235688-.9103189c-.8742667-.612888-1.5322199-1.6223505-1.9738598-3.0464138-.4326268-1.4240632-.6579533-3.3618708-.6579533-5.8224358,0-2.3884605.2523656-4.2992289.7480839-5.7232921.5047313-1.4330763,1.1987368-2.460565,2.0730034-3.1004921.8832797-.6309141,1.9017553-.9463711,3.0464138-.9463711,1.1536715,0,2.1721471.315457,3.0554268.9463711.8922928.6399271,1.5862983,1.6674158,2.0820165,3.1004921.5047313,1.4240632.7570969,3.3348316.7570969,5.7232921,0,2.460565-.2253265,4.3983725-.6759794,5.8224358Z"/>
          <path class="cls-2" d="M359.8432194,35.7869137c.5047313-.5678227,1.0455148-1.0995931,1.6223505-1.5862983.5678227-.4867052,1.1626845-.9553842,1.7665595-1.3970241.612888-.4416399,1.2077498-.8652536,1.7935986-1.2798543.8201883-.5858488,1.6854419-1.2438021,2.5957608-1.9828729.9103189-.7300577,1.7755725-1.5322199,2.5957608-2.4064866.8111753-.8652536,1.4781416-1.8026117,1.9918859-2.8030612.5137443-1.0004495.775123-2.0549773.775123-3.1635835,0-1.9197814-.6759794-3.4520014-2.0279382-4.5786337-1.3519588-1.1266323-3.1816096-1.694455-5.5069787-1.694455-1.847677,0-3.4700275.3605223-4.8850777,1.081567-1.4150502.7210447-2.6047739,1.6764289-3.5601581,2.8661526-.9553842,1.1897237-1.6674158,2.4876041-2.1360949,3.8846282l3.1906227,1.5232069c.3965746-.9553842.9553842-1.85669,1.6584028-2.6949045.7120316-.8292014,1.541233-1.5051808,2.4966172-2.0279382.9553842-.5227574,1.9918859-.7841361,3.1185182-.7841361,1.1446584,0,2.0279382.2523656,2.6588522.7480839.6309141.5047313.9463711,1.1897237.9463711,2.0549773,0,.5768357-.1712481,1.1716976-.4957182,1.7755725-.3244701.6038749-.76611,1.2077498-1.3249196,1.8116247-.5497966.6038749-1.1716976,1.1807107-1.8657031,1.7395203-.6940055.5678227-1.4150502,1.0995931-2.163134,1.6043244-1.0004495.6849924-2.009912,1.4420894-3.0103615,2.2712907-1.0004495.8382144-1.9378076,1.7124811-2.8030612,2.6318131-.8652536.9103189-1.6043244,1.8296509-2.2081993,2.7489828-.612888.919332-1.0184756,1.8206378-1.2167629,2.6858914l1.3249196,2.5236564h18.1252605v-3.6412756h-14.8264812c.4055876-.6940055.8562406-1.3339327,1.3699849-1.9107684Z"/>
          <path class="cls-2" d="M398.1793622,26.0618237c-1.2167629-1.081567-2.8841787-1.6313636-5.0022474-1.6493897-1.541233,0-2.9743093.2794048-4.3082419.8292014-1.3339327.5588096-2.5506955,1.2888674-3.6502887,2.1991863-.2275797.1892742-.3785485.4236137-.5937352.621901l1.6978349-8.9139148h12.1360832v-3.848576h-15.3402255l-2.7039175,14.7453636,3.8035107,1.4420894c.4957182-.5678227,1.1176192-1.1086062,1.8657031-1.6223505.7480839-.5227574,1.5772852-.9553842,2.4966172-1.3068935.9103189-.3424962,1.8657031-.5227574,2.8481265-.5227574,1.4691285,0,2.5597086.3334832,3.2627272.9914364.7120316.6669663,1.0635409,1.5322199,1.0635409,2.5957608,0,1.0995931-.4055876,2.1721471-1.2167629,3.2266749-.8201883,1.0545278-1.9378076,2.0549773-3.3708839,3.0103615-1.4240632.9553842-3.082466,1.847677-4.9661952,2.6768784-1.8837292.8292014-3.8936413,1.5592591-6.0477622,2.1811601l1.0184756,3.1275313c2.5416825-.6579533,4.939156-1.4511024,7.2014337-2.4064866,2.2622777-.9463711,4.2721897-2.0369512,6.020723-3.2807533,1.7485333-1.2438021,3.1185182-2.6318131,4.1189677-4.1730461.9914364-1.5502461,1.4871546-3.235688,1.4871546-5.0653388,0-2.1451079-.6038749-3.7674584-1.8206378-4.8580385Z"/>
        </g>
      </g>
    </g>
  </g>
</svg>