<?xml version="1.0" encoding="UTF-8"?>
<svg id="Layer_1" xmlns="http://www.w3.org/2000/svg" version="1.1" viewBox="0 0 284.2 57">
  <!-- Generator: Adobe Illustrator 29.1.0, SVG Export Plug-In . SVG Version: 2.1.0 Build 142)  -->
  <defs>
    <style>
      .st0 {
        fill: #1968be;
      }

      .st1 {
        fill: #f03700;
      }

      .st2 {
        font-family: MarkerFelt-Wide, 'Marker Felt';
        font-size: 39.2px;
      }

      .st3 {
        fill: #fbfeff;
      }
    </style>
  </defs>
  <circle class="st1" cx="-103.9" cy="10" r="10"/>
  <polygon class="st0" points="-21.1 30.3 -36.5 57 -5.7 57 -21.1 30.3"/>
  <polygon class="st3" points="-38.6 0 -23.2 26.7 -54 26.7 -38.6 0"/>
  <polygon class="st3" points="-89 26.7 -58.2 26.7 -73.6 0 -89 26.7"/>
  <path class="st0" d="M-58.2,26.7h0L-73.6,0l-15.4,26.7h0l-17.5,30.3h30.8l17.5-30.3h0ZM-73.6,1.6l14,24.3h-28L-73.6,1.6Z"/>
  <path class="st0" d="M-23.2,26.7h0L-38.6,0l-15.4,26.7h0l-17.5,30.3h30.8l17.5-30.3h0ZM-38.6,1.6l14,24.3h-28L-38.6,1.6Z"/>
  <text class="st2" transform="translate(7 43.6) scale(1.2 1)"><tspan x="0" y="0">ASSETS2026</tspan></text>
</svg>