<?xml version="1.0" encoding="UTF-8"?>
<svg id="Layer_1" xmlns="http://www.w3.org/2000/svg" version="1.1" viewBox="0 0 286.5 57">
  <!-- Generator: Adobe Illustrator 29.1.0, SVG Export Plug-In . SVG Version: 2.1.0 Build 142)  -->
  <defs>
    <style>
      .st0 {
        font-family: MarkerFelt-Wide, 'Marker Felt';
        font-size: 39.2px;
      }

      .st0, .st1 {
        fill: #fff;
      }
    </style>
  </defs>
  <path class="st1" d="M-92.9,13.1c.3-.9.5-2,.5-3C-92.5,4.5-97,0-102.6,0s-2,.2-3,.5h0l-.5.2c-3.3,1.2-5.9,4.2-6.5,7.8v1.6c0,.4,0,0,0,0h0c0,5.6,4.5,10.1,10.1,10.1s0,0,0,0h1.6c3.7-.6,6.7-3.1,7.9-6.5l.2-.5h0ZM-93.4,10.1c0,1.3-.3,2.5-.7,3.5-1.2.5-2.4.8-3.6.8-5.1,0-9.2-4.1-9.2-9.2s.3-2.4.8-3.6c1.1-.5,2.3-.7,3.5-.7,5.1,0,9.2,4.1,9.2,9.2Z"/>
  <path class="st1" d="M-19.9,32.3l13.7,23.7h-27.3l13.7-23.7M-19.9,30.3l-15.4,26.7H-4.5l-15.4-26.7h0Z"/>
  <polyline class="st1" points="-57 26.6 -57 26.6 -57 26.6 -57.5 25.8 -57.9 26.6 -60.7 26.6 -58.9 23.4 -59.3 22.6 -61.7 26.6 -64.5 26.6 -60.7 20.1 -61.2 19.3 -65.4 26.6 -68.2 26.6 -62.6 16.9 -63.1 16.1 -69.2 26.6 -72 26.6 -64.5 13.7 -64.9 12.9 -72.9 26.6 -75.7 26.6 -66.4 10.4 -66.8 9.6 -76.6 26.6 -79.5 26.6 -68.2 7.2 -68.7 6.4 -80.4 26.6 -83.2 26.6 -70.1 3.9 -70.6 3.1 -84.1 26.6 -86.9 26.6 -72 .7 -72.4 -.1 -87.9 26.6 -87.9 26.6"/>
  <polygon class="st1" points="-57 26.6 -57 26.6 -57.9 26.6 -57.9 26.6 -58.4 27.4 -58.4 27.4 -75 56.2 -104 56.2 -87.4 27.4 -87.4 27.4 -86.9 26.6 -87.9 26.6 -105.4 57 -74.5 57 -57 26.6 -57 26.6"/>
  <polyline class="st1" points="-21.9 26.6 -22 26.6 -22 26.6 -22.4 25.8 -22.9 26.6 -25.7 26.6 -23.8 23.4 -24.3 22.6 -26.6 26.6 -29.4 26.6 -25.7 20.1 -26.2 19.3 -30.4 26.6 -33.2 26.6 -27.6 16.9 -28 16.1 -34.1 26.6 -36.9 26.6 -29.4 13.7 -29.9 12.9 -37.8 26.6 -40.7 26.6 -31.3 10.4 -31.8 9.6 -41.6 26.6 -44.4 26.6 -33.2 7.2 -33.6 6.4 -45.3 26.6 -48.1 26.6 -35 3.9 -35.5 3.1 -49.1 26.6 -51.9 26.6 -36.9 .7 -37.4 -.1 -52.8 26.6 -52.8 26.6"/>
  <polygon class="st1" points="-22 26.6 -22 26.6 -22.9 26.6 -22.9 26.6 -23.3 27.4 -23.3 27.4 -40 56.2 -69 56.2 -52.3 27.4 -52.3 27.4 -51.9 26.6 -52.8 26.6 -70.4 57 -39.5 57 -21.9 26.6 -22 26.6"/>
  <text class="st0" transform="translate(7.7 41.8) scale(1.2 1)"><tspan x="0" y="0">ASSETS2026</tspan></text>
</svg>