<?xml version="1.0" encoding="UTF-8"?>
<svg id="Layer_1" xmlns="http://www.w3.org/2000/svg" version="1.1" viewBox="0 0 286.5 57">
  <!-- Generator: Adobe Illustrator 29.1.0, SVG Export Plug-In . SVG Version: 2.1.0 Build 142)  -->
  <defs>
    <style>
      .st0 {
        fill: #fff;
      }
    </style>
  </defs>
  <path class="st0" d="M-92.9,13.1c.3-.9.5-2,.5-3C-92.5,4.5-97,0-102.6,0s-2,.2-3,.5h0l-.5.2c-3.3,1.2-5.9,4.2-6.5,7.8v1.6c0,.4,0,0,0,0h0c0,5.6,4.5,10.1,10.1,10.1s0,0,0,0h1.6c3.7-.6,6.7-3.1,7.9-6.5l.2-.5h-.1ZM-93.4,10.1c0,1.3-.3,2.5-.7,3.5-1.2.5-2.4.8-3.6.8-5.1,0-9.2-4.1-9.2-9.2s.3-2.4.8-3.6c1.1-.5,2.3-.7,3.5-.7,5.1,0,9.2,4.1,9.2,9.2Z"/>
  <polygon class="st0" points="123.9 27.1 126 27.1 126.8 17.9 135.6 17.9 135.6 38.8 129.2 38.8 129.2 41.4 145.3 41.4 145.3 38.8 139 38.8 139 17.9 148.1 17.9 148.8 27.1 151 27.1 151 15.3 123.9 15.3 123.9 27.1"/>
  <path class="st0" d="M177.9,30.7c-1.1-1-2.5-1.8-4.3-2.4s-3.6-1.1-5.6-1.6c-1.1-.3-2.2-.5-3.3-.8-1-.2-1.9-.5-2.7-.9-.8-.3-1.4-.8-1.9-1.3s-.7-1.2-.7-1.9.3-1.6,1-2.2c.6-.6,1.5-1.1,2.5-1.4s2.2-.5,3.4-.5,3.1.2,4.4.6,2.4.8,3.3,1.4,1.7,1.2,2.4,1.8l2.2-2.2c-.6-.6-1.5-1.2-2.5-1.9-1.1-.7-2.4-1.3-4-1.8-1.6-.5-3.4-.8-5.5-.8s-3.4.3-5,.8c-1.6.5-2.9,1.3-3.8,2.3-1,1-1.5,2.3-1.5,3.9s.3,2.7,1,3.6,1.5,1.6,2.6,2.1,2.2.9,3.4,1.2c1.2.3,2.4.6,3.6.9,1.6.4,3.2.8,4.6,1.2,1.5.4,2.6.9,3.5,1.5.9.6,1.4,1.4,1.4,2.3s-.3,1.7-1,2.4-1.7,1.2-3,1.6c-1.3.4-2.9.6-4.8.6s-3.2-.2-4.7-.7-2.8-1.1-4-1.9c-1.2-.7-2.2-1.5-3-2.2l-1.8,2.3c.9.9,2,1.7,3.3,2.6,1.3.8,2.9,1.5,4.6,2s3.6.8,5.6.8,4.4-.3,6.2-.9c1.8-.6,3.2-1.4,4.3-2.6,1-1.1,1.5-2.6,1.5-4.2s-.5-2.9-1.6-3.9v.2s-.1,0-.1,0Z"/>
  <path class="st0" d="M55.3,28.3c-1.8-.6-3.6-1.1-5.6-1.6-1.1-.3-2.2-.5-3.3-.8-1-.2-1.9-.5-2.7-.9-.8-.3-1.4-.8-1.9-1.3s-.7-1.2-.7-1.9.3-1.6,1-2.2c.6-.6,1.5-1.1,2.5-1.4s2.2-.5,3.4-.5,3.1.2,4.4.6c1.3.4,2.4.8,3.3,1.4.9.6,1.7,1.2,2.4,1.8l2.2-2.2c-.6-.6-1.5-1.2-2.5-1.9-1.1-.7-2.4-1.3-4-1.8-1.6-.5-3.4-.8-5.5-.8s-3.4.3-5,.8c-1.6.5-2.9,1.3-3.8,2.3-1,1-1.5,2.3-1.5,3.9s.3,2.7,1,3.6,1.5,1.6,2.6,2.1,2.2.9,3.4,1.2c1.2.3,2.4.6,3.6.9,1.6.4,3.2.8,4.6,1.2,1.4.4,2.6.9,3.5,1.5.9.6,1.4,1.4,1.4,2.3s-.4,1.7-1,2.4c-.7.7-1.7,1.2-3,1.6-1.3.4-2.9.6-4.8.6s-3.2-.2-4.7-.7-2.8-1.1-4-1.9c-1.2-.7-2.2-1.5-3-2.2l-1.8,2.3c.8.9,1.9,1.7,3.3,2.6,1.3.8,2.9,1.5,4.6,2,1.7.5,3.6.8,5.6.8s4.4-.3,6.2-.9c1.8-.6,3.2-1.4,4.3-2.6,1-1.1,1.5-2.6,1.5-4.2s-.5-2.9-1.6-3.9-2.5-1.8-4.3-2.4v.2h0Z"/>
  <polygon class="st0" points="115.6 17.9 117.3 23.7 119.6 23.7 118.6 15.3 94.3 15.3 94.3 17.9 98.9 17.9 98.9 38.8 94.3 38.8 94.3 41.4 119.6 41.4 119.6 32.9 117.3 32.9 116.6 38.8 102.1 38.8 102.1 28.9 112.5 29.1 112.5 26.4 102.1 26.6 102.1 17.9 115.6 17.9"/>
  <path class="st0" d="M84.9,28.3c-1.8-.6-3.6-1.1-5.6-1.6-1.1-.3-2.2-.5-3.3-.8-1-.2-1.9-.5-2.7-.9-.8-.3-1.4-.8-1.9-1.3s-.7-1.2-.7-1.9.3-1.6,1-2.2c.6-.6,1.5-1.1,2.5-1.4s2.2-.5,3.4-.5,3.1.2,4.4.6c1.3.4,2.4.8,3.3,1.4.9.6,1.7,1.2,2.4,1.8l2.2-2.2c-.6-.6-1.5-1.2-2.5-1.9-1.1-.7-2.4-1.3-4-1.8-1.6-.5-3.4-.8-5.5-.8s-3.4.3-5,.8c-1.6.5-2.9,1.3-3.8,2.3-1,1-1.5,2.3-1.5,3.9s.3,2.7,1,3.6,1.5,1.6,2.6,2.1,2.2.9,3.4,1.2c1.2.3,2.4.6,3.6.9,1.6.4,3.2.8,4.6,1.2,1.4.4,2.6.9,3.5,1.5.9.6,1.4,1.4,1.4,2.3s-.4,1.7-1,2.4c-.7.7-1.7,1.2-3,1.6-1.3.4-2.9.6-4.8.6s-3.2-.2-4.7-.7-2.8-1.1-4-1.9c-1.2-.7-2.2-1.5-3-2.2l-1.8,2.3c.8.9,1.9,1.7,3.3,2.6,1.3.8,2.9,1.5,4.6,2,1.7.5,3.6.8,5.6.8s4.4-.3,6.2-.9c1.8-.6,3.2-1.4,4.3-2.6,1-1.1,1.5-2.6,1.5-4.2s-.5-2.9-1.6-3.9-2.5-1.8-4.3-2.4v.2h0Z"/>
  <path class="st0" d="M17.5,15.3h-8.1v2.6l7.1-.4-11,24.3h3.4l3.2-7.4h14.1l3,7.4h3.4l-11-26.6h-4.2.1ZM13.2,31.9l6.2-14.2,5.8,14.2s-12,0-12,0Z"/>
  <path class="st0" d="M-19.9,32.3l13.7,23.7h-27.3l13.7-23.7M-19.9,30.3l-15.4,26.7H-4.5l-15.4-26.7h0Z"/>
  <polyline class="st0" points="-57 26.6 -57 26.6 -57 26.6 -57.5 25.8 -57.9 26.6 -60.7 26.6 -58.9 23.4 -59.3 22.6 -61.7 26.6 -64.5 26.6 -60.7 20.1 -61.2 19.3 -65.4 26.6 -68.2 26.6 -62.6 16.9 -63.1 16.1 -69.2 26.6 -72 26.6 -64.5 13.7 -64.9 12.9 -72.9 26.6 -75.7 26.6 -66.4 10.4 -66.8 9.6 -76.6 26.6 -79.5 26.6 -68.2 7.2 -68.7 6.4 -80.4 26.6 -83.2 26.6 -70.1 3.9 -70.6 3.1 -84.1 26.6 -86.9 26.6 -72 .7 -72.4 -.1 -87.9 26.6 -87.9 26.6"/>
  <polygon class="st0" points="-57 26.6 -57 26.6 -57.9 26.6 -57.9 26.6 -58.4 27.4 -58.4 27.4 -75 56.2 -104 56.2 -87.4 27.4 -87.4 27.4 -86.9 26.6 -87.9 26.6 -105.4 57 -74.5 57 -57 26.6 -57 26.6"/>
  <polyline class="st0" points="-21.9 26.6 -22 26.6 -22 26.6 -22.4 25.8 -22.9 26.6 -25.7 26.6 -23.8 23.4 -24.3 22.6 -26.6 26.6 -29.4 26.6 -25.7 20.1 -26.2 19.3 -30.4 26.6 -33.2 26.6 -27.6 16.9 -28 16.1 -34.1 26.6 -36.9 26.6 -29.4 13.7 -29.9 12.9 -37.8 26.6 -40.7 26.6 -31.3 10.4 -31.8 9.6 -41.6 26.6 -44.4 26.6 -33.2 7.2 -33.6 6.4 -45.3 26.6 -48.1 26.6 -35 3.9 -35.5 3.1 -49.1 26.6 -51.9 26.6 -36.9 .7 -37.4 -.1 -52.8 26.6 -52.8 26.6"/>
  <polygon class="st0" points="-22 26.6 -22 26.6 -22.9 26.6 -22.9 26.6 -23.3 27.4 -23.3 27.4 -40 56.2 -69 56.2 -52.3 27.4 -52.3 27.4 -51.9 26.6 -52.8 26.6 -70.4 57 -39.5 57 -21.9 26.6 -22 26.6"/>
  <g>
    <path class="st0" d="M205.6,42.1c-.2,0-1.7,0-4.4,0s-4.7,0-6,0c-1.8,0-4.1,0-6.6,0s-3.9,0-4.1,0l-.9-2.6c1.3-.6,2.8-1.5,4.6-2.4s3.1-1.9,4.1-2.6c1.5-1.2,2.7-2.3,3.5-3.4s1.2-2.3,1.2-3.8-.3-2.1-.8-2.9c-.5-.8-1.2-1.4-2.1-1.9-.8-.4-1.8-.7-2.9-.9s-2.2-.3-3.5-.3-.9,0-1.4,0-1,0-1.4,0l.3-3.1c.3,0,.7,0,1.2,0s1.1,0,1.7,0c1.7,0,3.2.1,4.5.4,1.3.2,2.6.6,3.7,1.2,1.4.7,2.6,1.6,3.4,2.8.8,1.2,1.2,2.6,1.2,4.3s-.3,2.7-1,3.9c-.6,1.2-1.4,2.3-2.4,3.2-1,1-2.2,1.9-3.6,2.8s-2.8,1.7-4.2,2.4h0c.7,0,1.5,0,2.5,0s2,0,3-.1c2,0,4.1,0,6.5,0s3.6,0,3.9,0v3.2Z"/>
    <path class="st0" d="M233.3,30.3c0,1.9-.3,3.6-.9,5.2s-1.5,2.9-2.7,4c-1.1,1.1-2.4,1.9-3.9,2.5s-3.1.9-4.8.9-3.3-.3-4.8-.9-2.8-1.4-3.8-2.5-2.1-2.5-2.7-4.1-.9-3.3-.9-5.1.3-3.5.9-4.9,1.4-2.8,2.4-3.9c1-1.1,2.3-2,3.9-2.6s3.2-1,5.1-1,3.5.3,5,.9,2.8,1.5,3.8,2.6c1.1,1.2,2,2.5,2.5,4s.9,3.2.9,5.1ZM229.5,30.5c0-1.5-.2-2.9-.7-4.2s-1.1-2.4-2-3.2c-.7-.8-1.6-1.3-2.5-1.7s-2-.6-3.2-.6-2.5.2-3.4.7-1.7,1-2.4,1.7c-.8.8-1.5,1.9-2,3.2s-.7,2.6-.7,4,.2,2.9.7,4.1,1.2,2.4,2.2,3.3c.7.7,1.5,1.2,2.4,1.6s2,.6,3.1.6,2.2-.2,3.2-.6,1.8-.9,2.5-1.6c.9-.9,1.6-1.9,2.1-3.2s.7-2.6.7-4Z"/>
    <path class="st0" d="M260,42.1c-.2,0-1.7,0-4.4,0s-4.7,0-6,0c-1.8,0-4.1,0-6.6,0s-3.9,0-4.1,0l-.9-2.6c1.3-.6,2.8-1.5,4.6-2.4s3.1-1.9,4.1-2.6c1.5-1.2,2.7-2.3,3.5-3.4s1.2-2.3,1.2-3.8-.3-2.1-.8-2.9c-.5-.8-1.2-1.4-2.1-1.9-.8-.4-1.8-.7-2.9-.9s-2.2-.3-3.5-.3-.9,0-1.4,0-1,0-1.4,0l.3-3.1c.3,0,.7,0,1.2,0s1.1,0,1.7,0c1.7,0,3.2.1,4.5.4,1.3.2,2.6.6,3.7,1.2,1.4.7,2.6,1.6,3.4,2.8.8,1.2,1.2,2.6,1.2,4.3s-.3,2.7-1,3.9c-.6,1.2-1.4,2.3-2.4,3.2-1,1-2.2,1.9-3.6,2.8s-2.8,1.7-4.2,2.4h0c.7,0,1.5,0,2.5,0s2,0,3-.1c2,0,4.1,0,6.5,0s3.6,0,3.9,0v3.2Z"/>
    <path class="st0" d="M285.6,32.1c0,1.4-.3,2.8-.9,4.2s-1.4,2.5-2.3,3.4c-1,1-2.2,1.8-3.5,2.3s-2.7.8-4.3.8-3-.2-4.4-.7-2.6-1.3-3.8-2.3c-.9-.8-1.6-1.9-2.1-3.1s-.8-2.6-.8-4.3.3-3.4,1-5,2-3.7,4.1-6.1c2-2.3,3.9-4.5,5.7-6.4s3.4-3.7,4.8-5.1l2.7,2.2c-1.1,1.2-2.6,2.7-4.5,4.6-1.8,1.9-3.3,3.4-4.5,4.6h0c1,.2,2.2.4,3.5.8s2.5.9,3.7,1.5c1.8,1,3.2,2.3,4.2,3.8s1.4,3.2,1.4,5.1ZM281.8,32.4c0-1.5-.4-2.8-1.3-4s-2.1-2.2-3.7-3c-.9-.5-2-.8-3.2-1.1s-2.1-.4-2.8-.5c-1.1,1.1-1.9,2.4-2.6,3.9s-1,3-1,4.5.2,2.2.6,3.2,1,1.8,1.6,2.4c.7.7,1.4,1.1,2.3,1.5s1.8.5,2.8.5,2-.2,2.9-.6,1.6-.9,2.2-1.4c.7-.7,1.2-1.5,1.6-2.5s.5-2,.5-3Z"/>
  </g>
</svg>