<?xml version="1.0" encoding="UTF-8"?>
<svg id="Layer_1" xmlns="http://www.w3.org/2000/svg" version="1.1" viewBox="0 0 280.8 57">
  <!-- Generator: Adobe Illustrator 29.1.0, SVG Export Plug-In . SVG Version: 2.1.0 Build 142)  -->
  <defs>
    <style>
      .st0 {
        fill: #fff;
      }
    </style>
  </defs>
  <path class="st0" d="M-105.6,0C-111.1,0-115.6,4.5-115.6,10s4.5,10,10,10,10-4.5,10-10S-100.1,0-105.6,0h0Z"/>
  <polygon class="st0" points="118.2 27.1 120.3 27.1 121.1 17.9 129.9 17.9 129.9 38.8 123.5 38.8 123.5 41.4 139.6 41.4 139.6 38.8 133.3 38.8 133.3 17.9 142.4 17.9 143.1 27.1 145.3 27.1 145.3 15.3 118.2 15.3 118.2 27.1"/>
  <path class="st0" d="M172.2,30.7c-1.1-1-2.5-1.8-4.3-2.4s-3.6-1.1-5.6-1.6c-1.1-.3-2.2-.5-3.3-.8-1-.2-1.9-.5-2.7-.9-.8-.3-1.4-.8-1.9-1.3s-.7-1.2-.7-1.9.3-1.6,1-2.2c.6-.6,1.5-1.1,2.5-1.4s2.2-.5,3.4-.5,3.1.2,4.4.6,2.4.8,3.3,1.4,1.7,1.2,2.4,1.8l2.2-2.2c-.6-.6-1.5-1.2-2.5-1.9-1.1-.7-2.4-1.3-4-1.8-1.6-.5-3.4-.8-5.5-.8s-3.4.3-5,.8c-1.6.5-2.9,1.3-3.8,2.3-1,1-1.5,2.3-1.5,3.9s.3,2.7,1,3.6,1.5,1.6,2.6,2.1,2.2.9,3.4,1.2c1.2.3,2.4.6,3.6.9,1.6.4,3.2.8,4.6,1.2,1.5.4,2.6.9,3.5,1.5.9.6,1.4,1.4,1.4,2.3s-.3,1.7-1,2.4-1.7,1.2-3,1.6c-1.3.4-2.9.6-4.8.6s-3.2-.2-4.7-.7-2.8-1.1-4-1.9c-1.2-.7-2.2-1.5-3-2.2l-1.8,2.3c.9.9,2,1.7,3.3,2.6,1.3.8,2.9,1.5,4.6,2s3.6.8,5.6.8,4.4-.3,6.2-.9c1.8-.6,3.2-1.4,4.3-2.6,1-1.1,1.5-2.6,1.5-4.2s-.5-2.9-1.6-3.9v.2s-.1,0-.1,0Z"/>
  <path class="st0" d="M49.6,28.3c-1.8-.6-3.6-1.1-5.6-1.6-1.1-.3-2.2-.5-3.3-.8-1-.2-1.9-.5-2.7-.9-.8-.3-1.4-.8-1.9-1.3s-.7-1.2-.7-1.9.3-1.6,1-2.2c.6-.6,1.5-1.1,2.5-1.4s2.2-.5,3.4-.5,3.1.2,4.4.6c1.3.4,2.4.8,3.3,1.4.9.6,1.7,1.2,2.4,1.8l2.2-2.2c-.6-.6-1.5-1.2-2.5-1.9-1.1-.7-2.4-1.3-4-1.8-1.6-.5-3.4-.8-5.5-.8s-3.4.3-5,.8c-1.6.5-2.9,1.3-3.8,2.3-1,1-1.5,2.3-1.5,3.9s.3,2.7,1,3.6,1.5,1.6,2.6,2.1,2.2.9,3.4,1.2c1.2.3,2.4.6,3.6.9,1.6.4,3.2.8,4.6,1.2,1.4.4,2.6.9,3.5,1.5.9.6,1.4,1.4,1.4,2.3s-.4,1.7-1,2.4c-.7.7-1.7,1.2-3,1.6-1.3.4-2.9.6-4.8.6s-3.2-.2-4.7-.7-2.8-1.1-4-1.9c-1.2-.7-2.2-1.5-3-2.2l-1.8,2.3c.8.9,1.9,1.7,3.3,2.6,1.3.8,2.9,1.5,4.6,2,1.7.5,3.6.8,5.6.8s4.4-.3,6.2-.9c1.8-.6,3.2-1.4,4.3-2.6,1-1.1,1.5-2.6,1.5-4.2s-.5-2.9-1.6-3.9-2.5-1.8-4.3-2.4v.2h0Z"/>
  <polygon class="st0" points="109.9 17.9 111.6 23.7 113.9 23.7 112.9 15.3 88.6 15.3 88.6 17.9 93.2 17.9 93.2 38.8 88.6 38.8 88.6 41.4 113.9 41.4 113.9 32.9 111.6 32.9 110.9 38.8 96.4 38.8 96.4 28.9 106.8 29.1 106.8 26.4 96.4 26.6 96.4 17.9 109.9 17.9"/>
  <path class="st0" d="M79.2,28.3c-1.8-.6-3.6-1.1-5.6-1.6-1.1-.3-2.2-.5-3.3-.8-1-.2-1.9-.5-2.7-.9-.8-.3-1.4-.8-1.9-1.3s-.7-1.2-.7-1.9.3-1.6,1-2.2c.6-.6,1.5-1.1,2.5-1.4s2.2-.5,3.4-.5,3.1.2,4.4.6c1.3.4,2.4.8,3.3,1.4.9.6,1.7,1.2,2.4,1.8l2.2-2.2c-.6-.6-1.5-1.2-2.5-1.9-1.1-.7-2.4-1.3-4-1.8-1.6-.5-3.4-.8-5.5-.8s-3.4.3-5,.8c-1.6.5-2.9,1.3-3.8,2.3-1,1-1.5,2.3-1.5,3.9s.3,2.7,1,3.6,1.5,1.6,2.6,2.1,2.2.9,3.4,1.2c1.2.3,2.4.6,3.6.9,1.6.4,3.2.8,4.6,1.2,1.4.4,2.6.9,3.5,1.5.9.6,1.4,1.4,1.4,2.3s-.4,1.7-1,2.4c-.7.7-1.7,1.2-3,1.6-1.3.4-2.9.6-4.8.6s-3.2-.2-4.7-.7-2.8-1.1-4-1.9c-1.2-.7-2.2-1.5-3-2.2l-1.8,2.3c.8.9,1.9,1.7,3.3,2.6,1.3.8,2.9,1.5,4.6,2,1.7.5,3.6.8,5.6.8s4.4-.3,6.2-.9c1.8-.6,3.2-1.4,4.3-2.6,1-1.1,1.5-2.6,1.5-4.2s-.5-2.9-1.6-3.9-2.5-1.8-4.3-2.4v.2h0Z"/>
  <path class="st0" d="M11.8,15.3H3.7v2.6l7.1-.4L-.2,41.8h3.4l3.2-7.4h14.1l3,7.4h3.4L15.9,15.2h-4.2.1ZM7.5,31.9l6.2-14.2,5.8,14.2s-12,0-12,0Z"/>
  <path class="st0" d="M-22.8,32.3l13.7,23.7h-27.3l13.7-23.7M-22.8,30.3l-15.4,26.7H-7.4l-15.4-26.7h0Z"/>
  <polyline class="st0" points="-59.9 26.6 -59.9 26.6 -59.9 26.6 -60.4 25.8 -60.8 26.6 -63.6 26.6 -61.8 23.4 -62.2 22.6 -64.6 26.6 -67.4 26.6 -63.6 20.1 -64.1 19.3 -68.3 26.6 -71.1 26.6 -65.5 16.9 -66 16.1 -72.1 26.6 -74.9 26.6 -67.4 13.7 -67.8 12.9 -75.8 26.6 -78.6 26.6 -69.3 10.4 -69.7 9.6 -79.5 26.6 -82.4 26.6 -71.1 7.2 -71.6 6.4 -83.3 26.6 -86.1 26.6 -73 3.9 -73.5 3.1 -87 26.6 -89.8 26.6 -74.9 .7 -75.3 -.1 -90.8 26.6 -90.8 26.6"/>
  <polygon class="st0" points="-59.9 26.6 -59.9 26.6 -60.8 26.6 -60.8 26.6 -61.3 27.4 -61.3 27.4 -77.9 56.2 -106.9 56.2 -90.3 27.4 -90.3 27.4 -89.8 26.6 -90.8 26.6 -108.3 57 -77.4 57 -59.9 26.6 -59.9 26.6"/>
  <polyline class="st0" points="-24.8 26.6 -24.9 26.6 -24.9 26.6 -25.3 25.8 -25.8 26.6 -28.6 26.6 -26.7 23.4 -27.2 22.6 -29.5 26.6 -32.3 26.6 -28.6 20.1 -29.1 19.3 -33.3 26.6 -36.1 26.6 -30.5 16.9 -30.9 16.1 -37 26.6 -39.8 26.6 -32.3 13.7 -32.8 12.9 -40.7 26.6 -43.6 26.6 -34.2 10.4 -34.7 9.6 -44.5 26.6 -47.3 26.6 -36.1 7.2 -36.5 6.4 -48.2 26.6 -51 26.6 -37.9 3.9 -38.4 3.1 -52 26.6 -54.8 26.6 -39.8 .7 -40.3 -.1 -55.7 26.6 -55.7 26.6"/>
  <polygon class="st0" points="-24.9 26.6 -24.9 26.6 -25.8 26.6 -25.8 26.6 -26.2 27.4 -26.2 27.4 -42.9 56.2 -71.9 56.2 -55.2 27.4 -55.2 27.4 -54.8 26.6 -55.7 26.6 -73.3 57 -42.4 57 -24.8 26.6 -24.9 26.6"/>
  <g>
    <path class="st0" d="M197.9,42.1c-.2,0-1.7,0-4.4,0s-4.7,0-6,0c-1.8,0-4.1,0-6.6,0s-3.9,0-4.1,0l-.9-2.6c1.3-.6,2.8-1.5,4.6-2.4s3.1-1.9,4.1-2.6c1.5-1.2,2.7-2.3,3.5-3.4s1.2-2.3,1.2-3.8-.3-2.1-.8-2.9c-.5-.8-1.2-1.4-2.1-1.9-.8-.4-1.8-.7-2.9-.9s-2.2-.3-3.5-.3-.9,0-1.4,0-1,0-1.4,0l.3-3.1c.3,0,.7,0,1.2,0s1.1,0,1.7,0c1.7,0,3.2.1,4.5.4,1.3.2,2.6.6,3.7,1.2,1.4.7,2.6,1.6,3.4,2.8.8,1.2,1.2,2.6,1.2,4.3s-.3,2.7-1,3.9c-.6,1.2-1.4,2.3-2.4,3.2-1,1-2.2,1.9-3.6,2.8s-2.8,1.7-4.2,2.4h0c.7,0,1.5,0,2.5,0s2,0,3-.1c2,0,4.1,0,6.5,0s3.6,0,3.9,0v3.2Z"/>
    <path class="st0" d="M225.7,30.3c0,1.9-.3,3.6-.9,5.2s-1.5,2.9-2.7,4c-1.1,1.1-2.4,1.9-3.9,2.5s-3.1.9-4.8.9-3.3-.3-4.8-.9-2.8-1.4-3.8-2.5-2.1-2.5-2.7-4.1-.9-3.3-.9-5.1.3-3.5.9-4.9,1.4-2.8,2.4-3.9c1-1.1,2.3-2,3.9-2.6s3.2-1,5.1-1,3.5.3,5,.9,2.8,1.5,3.8,2.6c1.1,1.2,2,2.5,2.5,4s.9,3.2.9,5.1ZM221.9,30.5c0-1.5-.2-2.9-.7-4.2s-1.1-2.4-2-3.2c-.7-.8-1.6-1.3-2.5-1.7s-2-.6-3.2-.6-2.5.2-3.4.7-1.7,1-2.4,1.7c-.8.8-1.5,1.9-2,3.2s-.7,2.6-.7,4,.2,2.9.7,4.1,1.2,2.4,2.2,3.3c.7.7,1.5,1.2,2.4,1.6s2,.6,3.1.6,2.2-.2,3.2-.6,1.8-.9,2.5-1.6c.9-.9,1.6-1.9,2.1-3.2s.7-2.6.7-4Z"/>
    <path class="st0" d="M252.3,42.1c-.2,0-1.7,0-4.4,0s-4.7,0-6,0c-1.8,0-4.1,0-6.6,0s-3.9,0-4.1,0l-.9-2.6c1.3-.6,2.8-1.5,4.6-2.4s3.1-1.9,4.1-2.6c1.5-1.2,2.7-2.3,3.5-3.4s1.2-2.3,1.2-3.8-.3-2.1-.8-2.9c-.5-.8-1.2-1.4-2.1-1.9-.8-.4-1.8-.7-2.9-.9s-2.2-.3-3.5-.3-.9,0-1.4,0-1,0-1.4,0l.3-3.1c.3,0,.7,0,1.2,0s1.1,0,1.7,0c1.7,0,3.2.1,4.5.4,1.3.2,2.6.6,3.7,1.2,1.4.7,2.6,1.6,3.4,2.8.8,1.2,1.2,2.6,1.2,4.3s-.3,2.7-1,3.9c-.6,1.2-1.4,2.3-2.4,3.2-1,1-2.2,1.9-3.6,2.8s-2.8,1.7-4.2,2.4h0c.7,0,1.5,0,2.5,0s2,0,3-.1c2,0,4.1,0,6.5,0s3.6,0,3.9,0v3.2Z"/>
    <path class="st0" d="M278,32.1c0,1.4-.3,2.8-.9,4.2s-1.4,2.5-2.3,3.4c-1,1-2.2,1.8-3.5,2.3s-2.7.8-4.3.8-3-.2-4.4-.7-2.6-1.3-3.8-2.3c-.9-.8-1.6-1.9-2.1-3.1s-.8-2.6-.8-4.3.3-3.4,1-5,2-3.7,4.1-6.1c2-2.3,3.9-4.5,5.7-6.4s3.4-3.7,4.8-5.1l2.7,2.2c-1.1,1.2-2.6,2.7-4.5,4.6-1.8,1.9-3.3,3.4-4.5,4.6h0c1,.2,2.2.4,3.5.8s2.5.9,3.7,1.5c1.8,1,3.2,2.3,4.2,3.8s1.4,3.2,1.4,5.1ZM274.2,32.4c0-1.5-.4-2.8-1.3-4s-2.1-2.2-3.7-3c-.9-.5-2-.8-3.2-1.1s-2.1-.4-2.8-.5c-1.1,1.1-1.9,2.4-2.6,3.9s-1,3-1,4.5.2,2.2.6,3.2,1,1.8,1.6,2.4c.7.7,1.4,1.1,2.3,1.5s1.8.5,2.8.5,2-.2,2.9-.6,1.6-.9,2.2-1.4c.7-.7,1.2-1.5,1.6-2.5s.5-2,.5-3Z"/>
  </g>
</svg>