<?xml version="1.0" encoding="UTF-8"?>
<svg id="Layer_1" xmlns="http://www.w3.org/2000/svg" version="1.1" viewBox="0 0 280.8 57">
  <!-- Generator: Adobe Illustrator 29.1.0, SVG Export Plug-In . SVG Version: 2.1.0 Build 142)  -->
  <defs>
    <style>
      .st0 {
        font-family: MarkerFelt-Wide, 'Marker Felt';
        font-size: 39.2px;
      }

      .st0, .st1 {
        fill: #fff;
      }
    </style>
  </defs>
  <path class="st1" d="M-105.6,0C-111.1,0-115.6,4.5-115.6,10s4.5,10,10,10,10-4.5,10-10S-100.1,0-105.6,0h0Z"/>
  <path class="st1" d="M-22.8,32.3l13.7,23.7h-27.3l13.7-23.7M-22.8,30.3l-15.4,26.7H-7.4l-15.4-26.7h0Z"/>
  <polyline class="st1" points="-59.9 26.6 -59.9 26.6 -59.9 26.6 -60.4 25.8 -60.8 26.6 -63.6 26.6 -61.8 23.4 -62.2 22.6 -64.6 26.6 -67.4 26.6 -63.6 20.1 -64.1 19.3 -68.3 26.6 -71.1 26.6 -65.5 16.9 -66 16.1 -72.1 26.6 -74.9 26.6 -67.4 13.7 -67.8 12.9 -75.8 26.6 -78.6 26.6 -69.3 10.4 -69.7 9.6 -79.5 26.6 -82.4 26.6 -71.1 7.2 -71.6 6.4 -83.3 26.6 -86.1 26.6 -73 3.9 -73.5 3.1 -87 26.6 -89.8 26.6 -74.9 .7 -75.3 -.1 -90.8 26.6 -90.8 26.6"/>
  <polygon class="st1" points="-59.9 26.6 -59.9 26.6 -60.8 26.6 -60.8 26.6 -61.3 27.4 -61.3 27.4 -77.9 56.2 -106.9 56.2 -90.3 27.4 -90.3 27.4 -89.8 26.6 -90.8 26.6 -108.3 57 -77.4 57 -59.9 26.6 -59.9 26.6"/>
  <polyline class="st1" points="-24.8 26.6 -24.9 26.6 -24.9 26.6 -25.3 25.8 -25.8 26.6 -28.6 26.6 -26.7 23.4 -27.2 22.6 -29.5 26.6 -32.3 26.6 -28.6 20.1 -29.1 19.3 -33.3 26.6 -36.1 26.6 -30.5 16.9 -30.9 16.1 -37 26.6 -39.8 26.6 -32.3 13.7 -32.8 12.9 -40.7 26.6 -43.6 26.6 -34.2 10.4 -34.7 9.6 -44.5 26.6 -47.3 26.6 -36.1 7.2 -36.5 6.4 -48.2 26.6 -51 26.6 -37.9 3.9 -38.4 3.1 -52 26.6 -54.8 26.6 -39.8 .7 -40.3 -.1 -55.7 26.6 -55.7 26.6"/>
  <polygon class="st1" points="-24.9 26.6 -24.9 26.6 -25.8 26.6 -25.8 26.6 -26.2 27.4 -26.2 27.4 -42.9 56.2 -71.9 56.2 -55.2 27.4 -55.2 27.4 -54.8 26.6 -55.7 26.6 -73.3 57 -42.4 57 -24.8 26.6 -24.9 26.6"/>
  <text class="st0" transform="translate(4.1 44.1) scale(1.2 1)"><tspan x="0" y="0">ASSETS2026</tspan></text>
</svg>