<?xml version="1.0" encoding="UTF-8"?>
<svg xmlns="http://www.w3.org/2000/svg" version="1.1" viewBox="0 0 300 280.2999878">
  <defs>
    <style>
      .cls-1 {
        fill: #8876ff;
      }

      .cls-2 {
        fill: #ffde00;
      }

      .cls-3 {
        fill: #085c3b;
      }

      .cls-4 {
        fill: #fff;
      }

      .cls-5 {
        fill: #fd0;
      }
    </style>
  </defs>
  <!-- Generator: Adobe Illustrator 28.6.0, SVG Export Plug-In . SVG Version: 1.2.0 Build 709)  -->
  <g>
    <g id="Layer_1">
      <circle class="cls-3" cx="32.7954305" cy="24.5267964" r="24.5267964"/>
      <g>
        <polygon class="cls-4" points="204.1220168 189.2638324 207.8209151 189.2638324 209.1421422 173.497816 224.3369261 173.497816 224.3369261 209.4357313 213.3706066 209.4357313 213.3706066 213.9276347 241.0733657 213.9276347 241.0733657 209.4357313 230.1070462 209.4357313 230.1070462 173.497816 245.7856976 173.497816 247.1069248 189.2638324 250.8071672 189.2638324 250.8071672 169.0059126 204.1220168 169.0059126 204.1220168 189.2638324"/>
        <path class="cls-4" d="M297.202977,195.4734654c-1.8602018-1.7016007-4.3050768-3.0833113-7.3332809-4.1397554-3.0214838-1.0564441-6.2647402-1.9650397-9.7331294-2.7284751-1.9657118-.4408571-3.8366661-.8763378-5.6148792-1.301066-1.7728368-.4247281-3.3534707-.9301009-4.7351812-1.5188064-1.3763343-.5887055-2.4663802-1.3225712-3.2593853-2.2015972-.792333-.8817141-1.1888356-1.9999857-1.1888356-3.3494384,0-1.4677315.5503993-2.7338514,1.6511979-3.8091126,1.1014706-1.072573,2.5550893-1.8924596,4.3608559-2.4650362,1.8057667-.5725766,3.7654301-.8602089,5.8796623-.8602089,2.8185283,0,5.3238867.3252665,7.509355.9704232,2.1908446.6424685,4.0900245,1.459667,5.7029162,2.4435309,1.61894.9865521,3.0120753,2.0214909,4.1841099,3.1048165l3.7876074-3.7445969c-1.0564441-1.0268744-2.5100627-2.1397697-4.3601839-3.3467503-1.8494492-1.2042925-4.1290028-2.2392313-6.8480694-3.1048165-2.7143623-.8628971-5.8803343-1.2983778-9.4911956-1.2983778-3.0221558,0-5.8904149.4408571-8.6108256,1.319883-2.7136903.8817141-4.9213358,2.2096616-6.6276408,3.9865307-1.7016007,1.7795572-2.5550893,4.0295411-2.5550893,6.7607044,0,2.5537452.5672002,4.607494,1.6962244,6.1666226,1.1337285,1.5591286,2.6088523,2.77955,4.4260437,3.6773931,1.8225676.897843,3.7876074,1.6021391,5.9018396,2.1128881,2.1142322.5134372,4.1558843,1.0349388,6.1215961,1.564505,2.8192003.6774145,5.4777834,1.3817106,7.9717172,2.1128881,2.4993101.7338657,4.5255053,1.6128917,6.0779136,2.6451424,1.5584566,1.0268744,2.3339887,2.3601982,2.3339887,4.0053477,0,1.5591286-.5994581,2.9354629-1.8050946,4.1397554-1.2002602,1.2069806-2.9347909,2.1532104-5.1975435,2.8413776-2.2567043.6881671-5.0207975,1.0349388-8.2795107,1.0349388-2.8743074,0-5.5826214-.42204-8.126286-1.2768726-2.5376163-.8521445-4.8225462-1.916653-6.8487414-3.1935256-2.0261952-1.2768726-3.7271239-2.5483689-5.1088345-3.8091126l-3.0826393,3.9650254c1.4697476,1.5241827,3.3635512,2.9946023,5.681411,4.4031944,2.3225641,1.4085921,4.9764429,2.5725623,7.9717172,3.4784698,2.9946023.9085957,6.226434,1.3655816,9.6894469,1.3655816,3.9966112,0,7.5476611-.4999964,10.658526-1.4973011,3.1155691-.9946166,5.5597721-2.4811651,7.3326089-4.4462048,1.7782131-1.9677279,2.6646315-4.4058825,2.6646315-7.3117757,0-2.7580448-.9301009-4.994588-2.797023-6.6961887Z"/>
        <path class="cls-4" d="M85.8806743,191.33371c-3.0282042-1.0564441-6.2701165-1.9650397-9.7338014-2.7284751-1.970416-.4408571-3.8427145-.8763378-5.6148792-1.301066-1.7782131-.4247281-3.3581749-.9301009-4.7345092-1.5188064-1.3817106-.5887055-2.4663802-1.3225712-3.2593853-2.2015972-.7930051-.8817141-1.1895076-1.9999857-1.1895076-3.3494384,0-1.4677315.5510713-2.7338514,1.6518699-3.8091126,1.1007986-1.072573,2.5544172-1.8924596,4.3601839-2.4650362,1.8057667-.5725766,3.7661021-.8602089,5.8803343-.8602089,2.8185283,0,5.3171663.3252665,7.5086829.9704232,2.1861403.6424685,4.0853203,1.459667,5.7035883,2.4435309,1.6128917.9865521,3.0060269,2.0214909,4.1841099,3.1048165l3.7876074-3.7445969c-1.0571161-1.0268744-2.5107348-2.1397697-4.3601839-3.3467503-1.8494492-1.2042925-4.1343791-2.2392313-6.8487414-3.1048165-2.7197386-.8628971-5.8796623-1.2983778-9.4911956-1.2983778-3.0282042,0-5.8964633.4408571-8.6101535,1.319883-2.7197386.8817141-4.9273842,2.2096616-6.6289849,3.9865307-1.706305,1.7795572-2.5537452,4.0295411-2.5537452,6.7607044,0,2.5537452.5611519,4.607494,1.6948804,6.1666226,1.1290242,1.5591286,2.6048201,2.77955,4.4267157,3.6773931,1.8165193.897843,3.7876074,1.6021391,5.9018396,2.1128881,2.1135602.5134372,4.15118,1.0349388,6.1215961,1.564505,2.8185283.6774145,5.4730792,1.3817106,7.9717172,2.1128881,2.4946058.7338657,4.520129,1.6128917,6.0779136,2.6451424,1.5524083,1.0268744,2.3346607,2.3601982,2.3346607,4.0053477,0,1.5591286-.6061785,2.9354629-1.8057667,4.1397554-1.2056365,1.2069806-2.9401672,2.1532104-5.1968715,2.8413776-2.2634247.6881671-5.0214695,1.0349388-8.2801828,1.0349388-2.8796837,0-5.5879977-.42204-8.125614-1.2768726-2.5443367-.8521445-4.8225462-1.916653-6.8494134-3.1935256-2.0255232-1.2768726-3.7325002-2.5483689-5.1088345-3.8091126l-3.0826393,3.9650254c1.4643713,1.5241827,3.3581749,2.9946023,5.681411,4.4031944,2.3178598,1.4085921,4.9764429,2.5725623,7.9717172,3.4784698,2.9952743.9085957,6.2210577,1.3655816,9.6894469,1.3655816,3.9912349,0,7.5422848-.4999964,10.657854-1.4973011,3.1108649-.9946166,5.5550678-2.4811651,7.3332809-4.4462048,1.7728368-1.9677279,2.6653035-4.4058825,2.6653035-7.3117757,0-2.7580448-.9368213-4.994588-2.797023-6.6961887-1.8669221-1.7016007-4.3104531-3.0833113-7.3332809-4.1397554Z"/>
        <polygon class="cls-4" points="189.9040685 173.497816 192.7232688 183.5380668 196.7306326 183.5380668 194.9692205 169.0059126 153.1281215 169.0059126 153.1281215 173.497816 161.0561563 173.497816 161.0561563 209.4357313 153.1281215 209.4357313 153.1281215 213.9276347 196.7306326 213.9276347 196.7306326 199.3954804 192.7232688 199.3954804 191.5337612 209.4357313 166.6495303 209.4357313 166.6495303 192.4358527 184.442414 192.8310112 184.442414 188.1186792 166.6495303 188.5165259 166.6495303 173.497816 189.9040685 173.497816"/>
        <path class="cls-4" d="M136.8799458,191.33371c-3.0282042-1.0564441-6.2714606-1.9650397-9.7338014-2.7284751-1.9710881-.4408571-3.8427145-.8763378-5.6155513-1.301066-1.7782131-.4247281-3.3581749-.9301009-4.7345092-1.5188064-1.3823826-.5887055-2.4663802-1.3225712-3.2593853-2.2015972-.792333-.8817141-1.1888356-1.9999857-1.1888356-3.3494384,0-1.4677315.5503993-2.7338514,1.6518699-3.8091126,1.1007986-1.072573,2.5537452-1.8924596,4.3601839-2.4650362,1.8050946-.5725766,3.7647581-.8602089,5.8789903-.8602089,2.8192003,0,5.3185104.3252665,7.509355.9704232,2.1854683.6424685,4.0853203,1.459667,5.7042603,2.4435309,1.6128917.9865521,3.0053549,2.0214909,4.1834379,3.1048165l3.7882794-3.7445969c-1.0577881-1.0268744-2.5107348-2.1397697-4.3608559-3.3467503-1.8501212-1.2042925-4.1343791-2.2392313-6.8487414-3.1048165-2.7190666-.8628971-5.8789903-1.2983778-9.4905236-1.2983778-3.0282042,0-5.8964633.4408571-8.6108256,1.319883-2.7197386.8817141-4.9273842,2.2096616-6.6283129,3.9865307-1.7069771,1.7795572-2.5544172,4.0295411-2.5544172,6.7607044,0,2.5537452.5611519,4.607494,1.6955524,6.1666226,1.1290242,1.5591286,2.6041481,2.77955,4.4260437,3.6773931,1.8171913.897843,3.7876074,1.6021391,5.9018396,2.1128881,2.1142322.5134372,4.15118,1.0349388,6.1222681,1.564505,2.8185283.6774145,5.4717351,1.3817106,7.9717172,2.1128881,2.4932618.7338657,4.520129,1.6128917,6.0779136,2.6451424,1.5524083,1.0268744,2.3339887,2.3601982,2.3339887,4.0053477,0,1.5591286-.6055064,2.9354629-1.8057667,4.1397554-1.2056365,1.2069806-2.9394951,2.1532104-5.1968715,2.8413776-2.2627527.6881671-5.0207975,1.0349388-8.2801828,1.0349388-2.8790117,0-5.5879977-.42204-8.126286-1.2768726-2.5429926-.8521445-4.8225462-1.916653-6.8480694-3.1935256-2.0261952-1.2768726-3.7325002-2.5483689-5.1088345-3.8091126l-3.0833113,3.9650254c1.4643713,1.5241827,3.3581749,2.9946023,5.681411,4.4031944,2.3178598,1.4085921,4.977115,2.5725623,7.9717172,3.4784698,2.9946023.9085957,6.2210577,1.3655816,9.6894469,1.3655816,3.991907,0,7.5422848-.4999964,10.658526-1.4973011,3.1101928-.9946166,5.5550678-2.4811651,7.3332809-4.4462048,1.7728368-1.9677279,2.6639595-4.4058825,2.6639595-7.3117757,0-2.7580448-.9354772-4.994588-2.796351-6.6961887-1.8662501-1.7016007-4.3111251-3.0833113-7.3326089-4.1397554Z"/>
        <path class="cls-4" d="M20.7001209,169.0046709H6.7828817v4.5349138l12.1632196-.6532211L0,214.8081071h5.9018396l5.5779171-12.7714141h24.3815463l5.1867909,12.7714141h5.9018396l-18.9823913-45.8034362h-7.2674212ZM13.4421083,197.5421014l10.6706227-24.4326212,9.9233162,24.4326212H13.4421083Z"/>
      </g>
      <path class="cls-2" d="M45.0582362,36.7920438c-13.5454593,0-24.5280042-10.9825449-24.5280042-24.5328127,0-3.5871184.8559076-6.9434303,2.2455554-10.011234-8.5254169,3.8371589-14.5071533,12.3192995-14.5071533,22.2824489,0,13.5406508,10.9777365,24.5231958,24.5231958,24.5231958,9.9535324,0,18.4404815-5.9913533,22.2824489-14.5119617-3.0726122,1.3944562-6.4241156,2.2503638-10.0160425,2.2503638Z"/>
      <path class="cls-5" d="M93.1686695,266.7446593c.6822781-.7675629,1.4132904-1.4863916,2.1930368-2.1443027.7675629-.657911,1.5716764-1.291455,2.3879734-1.8884484.8284806-.5969934,1.6325941-1.1696196,2.424524-1.7300624,1.1087019-.79193,2.2783216-1.6813282,3.5088589-2.6803783,1.2305373-.9868666,2.400157-2.0712014,3.5088589-3.2530046,1.0965184-1.1696196,1.9981002-2.4367076,2.6925619-3.7890803.6944617-1.3523727,1.0477843-2.7778466,1.0477843-4.2764218,0-2.5950936-.9137653-4.666295-2.741296-6.1892372-1.8275307-1.5229422-4.3007889-2.2905051-7.4441416-2.2905051-2.4976253,0-4.6906621.4873415-6.6034775,1.4620245s-3.5210424,2.266138-4.8124974,3.874365c-1.291455,1.608227-2.2539545,3.3626564-2.8874985,5.2511048l4.3129724,2.0590179c.5360757-1.291455,1.291455-2.5098088,2.241771-3.6428778.9624995-1.1208855,2.083385-2.0346508,3.37484-2.741296,1.291455-.7066452,2.6925619-1.0599678,4.2155041-1.0599678,1.5473093,0,2.741296.3411391,3.5941437,1.0112336.8528476.6822781,1.2792715,1.608227,1.2792715,2.7778466,0,.7797464-.2314872,1.5838599-.6700946,2.400157-.4386074.816297-1.0356007,1.6325941-1.7909801,2.4488911-.7431958.816297-1.5838599,1.5960435-2.5219923,2.3514228-.9381324.7675629-1.9128154,1.4863916-2.9240491,2.1686697-1.3523727.9259489-2.7169289,1.9493661-4.0693016,3.0702515-1.3523727,1.133069-2.6194606,2.3148722-3.7890803,3.557593-1.1696196,1.2305373-2.1686697,2.4732582-2.9849668,3.715979-.8284806,1.2427209-1.3767398,2.4610746-1.6447776,3.6306943l1.7909801,3.4113906h24.5010946v-4.9221493h-20.0419197c.5482592-.9381324,1.1574361-1.8031636,1.8518977-2.58291Z"/>
      <path class="cls-5" d="M140.4944038,240.416034c-2.0590179-1.2670879-4.4104407-1.9128154-7.0664519-1.9128154-2.6316442,0-4.983067.6457275-7.0420849,1.9128154-2.0590179,1.2792715-3.6794284,3.2408211-4.8612316,5.9211994-1.1818032,2.6681948-1.766613,6.1039525-1.766613,10.307273,0,4.4835419.5482592,8.041135,1.6691447,10.6971462,1.1087019,2.6560112,2.6803783,4.5566431,4.7150291,5.7140792,2.0468344,1.1574361,4.4713584,1.7300624,7.2857556,1.7300624s5.2511048-.5726263,7.2979392-1.7300624c2.0468344-1.1574361,3.6306943-3.058068,4.7393962-5.7140792,1.1087019-2.6560112,1.6691447-6.2136043,1.6691447-10.6971462,0-4.2033205-.5969934-7.6390782-1.7787965-10.307273-1.1818032-2.6803783-2.8022137-4.6419279-4.8612316-5.9211994ZM140.4822203,264.5150719c-.5969934,1.924999-1.4985752,3.2895552-2.6803783,4.1180358-1.1818032.816297-2.6438277,1.2305373-4.3738901,1.2305373s-3.1920869-.4142403-4.3738901-1.2305373c-1.1818032-.8284806-2.0712014-2.1930368-2.6681948-4.1180358-.5848098-1.924999-.8893983-4.5444596-.8893983-7.8705654,0-3.2286375.3411391-5.8115475,1.0112336-7.7365465.6822781-1.9371825,1.6204105-3.3261058,2.8022137-4.191137,1.1939867-.8528476,2.5707265-1.2792715,4.1180358-1.2792715,1.5594928,0,2.9362326.4264238,4.1302193,1.2792715,1.2061702.8650312,2.1443027,2.2539545,2.8143972,4.191137.6822781,1.924999,1.0234172,4.507909,1.0234172,7.7365465,0,3.3261058-.3045884,5.9455665-.9137653,7.8705654Z"/>
      <path class="cls-5" d="M160.6508488,266.7446593c.6822781-.7675629,1.4132904-1.4863916,2.1930368-2.1443027.7675629-.657911,1.5716764-1.291455,2.3879734-1.8884484.8284806-.5969934,1.6325941-1.1696196,2.424524-1.7300624,1.1087019-.79193,2.2783216-1.6813282,3.5088589-2.6803783,1.2305373-.9868666,2.400157-2.0712014,3.5088589-3.2530046,1.0965184-1.1696196,1.9981002-2.4367076,2.6925619-3.7890803.6944617-1.3523727,1.0477843-2.7778466,1.0477843-4.2764218,0-2.5950936-.9137653-4.666295-2.741296-6.1892372-1.8275307-1.5229422-4.3007889-2.2905051-7.4441416-2.2905051-2.4976253,0-4.6906621.4873415-6.6034775,1.4620245-1.9128154.974683-3.5210424,2.266138-4.8124974,3.874365-1.291455,1.608227-2.2539545,3.3626564-2.8874985,5.2511048l4.3129724,2.0590179c.5360757-1.291455,1.291455-2.5098088,2.241771-3.6428778.9624995-1.1208855,2.083385-2.0346508,3.37484-2.741296,1.291455-.7066452,2.6925619-1.0599678,4.2155041-1.0599678,1.5473093,0,2.741296.3411391,3.5941437,1.0112336.8528476.6822781,1.2792715,1.608227,1.2792715,2.7778466,0,.7797464-.2314872,1.5838599-.6700946,2.400157-.4386074.816297-1.0356007,1.6325941-1.7909801,2.4488911-.7431958.816297-1.5838599,1.5960435-2.5219923,2.3514228-.9381324.7675629-1.9128154,1.4863916-2.9240491,2.1686697-1.3523727.9259489-2.7169289,1.9493661-4.0693016,3.0702515-1.3523727,1.133069-2.6194606,2.3148722-3.7890803,3.557593-1.1696196,1.2305373-2.1686697,2.4732582-2.9849668,3.715979-.8284806,1.2427209-1.3767398,2.4610746-1.6447776,3.6306943l1.7909801,3.4113906h24.5010946v-4.9221493h-20.0419197c.5482592-.9381324,1.1574361-1.8031636,1.8518977-2.58291Z"/>
      <path class="cls-5" d="M212.4723086,253.598622c-1.6447776-1.4620245-3.8987321-2.2052203-6.7618635-2.2295874-2.083385,0-4.0205675.3776897-5.8237311,1.1208855-1.8031636.7553793-3.4479412,1.7422459-4.9343328,2.9727832-.3076343.2558543-.5117086.5726263-.8025906.8406641l2.2950739-12.0495189h16.4051337v-5.2023707h-20.7363814l-3.6550613,19.9322679,5.141453,1.9493661c.6700946-.7675629,1.5107587-1.4985752,2.5219923-2.1930368,1.0112336-.7066452,2.1321191-1.291455,3.37484-1.766613,1.2305373-.4629744,2.5219923-.7066452,3.849998-.7066452,1.9859167,0,3.4601247.4507909,4.4104407,1.3401892.9624995.9015818,1.4376575,2.0712014,1.4376575,3.5088589,0,1.4863916-.5482592,2.9362326-1.6447776,4.3617065-1.1087019,1.4254739-2.6194606,2.7778466-4.5566431,4.0693016-1.924999,1.291455-4.1667699,2.4976253-6.7131293,3.6185107-2.5463594,1.1208855-5.2632883,2.107752-8.1751539,2.9484162l1.3767398,4.2276876c3.4357577-.8893983,6.6765787-1.9615496,9.7346467-3.2530046,3.058068-1.2792715,5.7749969-2.7534795,8.1386033-4.4348078,2.3636063-1.6813282,4.2155041-3.557593,5.5678768-5.640978,1.3401892-2.0955685,2.0102837-4.3738901,2.0102837-6.8471483,0-2.899682-.816297-5.0927188-2.4610746-6.5669269Z"/>
      <g>
        <polygon class="cls-1" points="69.3067791 65.4047915 26.3815695 139.7629679 101.9033956 139.7629679 144.8286052 65.4047915 69.3067791 65.4047915"/>
        <polygon class="cls-1" points="235.8577462 74.3581622 198.0968332 139.7629679 273.6234677 139.7629679 235.8577462 74.3581622"/>
        <polygon class="cls-1" points="155.1668151 65.4047915 112.2416056 139.7629679 187.7634317 139.7629679 230.6886412 65.4047915 155.1668151 65.4047915"/>
      </g>
      <path class="cls-4" d="M192.9289083,0l37.7621249,65.4056814h-75.5238675L192.9289083,0ZM69.3068878,65.4056814h75.5238675L107.0686304,0l-37.7617426,65.4056814Z"/>
    </g>
  </g>
</svg>