<?xml version="1.0" encoding="UTF-8"?>
<svg xmlns="http://www.w3.org/2000/svg" version="1.1" viewBox="0 0 300 280.3">
  <defs>
    <style>
      .cls-1 {
        fill: #1968be;
      }

      .cls-2 {
        fill: #f03700;
      }

      .cls-3 {
        fill: #fbfeff;
      }
    </style>
  </defs>
  <!-- Generator: Adobe Illustrator 28.6.0, SVG Export Plug-In . SVG Version: 1.2.0 Build 709)  -->
  <g>
    <g id="Layer_1">
      <g id="Layer_1-2" data-name="Layer_1">
        <g>
          <polygon class="cls-1" points="204.1 189.3 207.8 189.3 209.1 173.5 224.3 173.5 224.3 209.4 213.4 209.4 213.4 213.9 241.1 213.9 241.1 209.4 230.1 209.4 230.1 173.5 245.8 173.5 247.1 189.3 250.8 189.3 250.8 169 204.1 169 204.1 189.3"/>
          <path class="cls-1" d="M297.2,195.5c-1.9-1.7-4.3-3.1-7.3-4.1-3-1.1-6.3-2-9.7-2.7-2-.4-3.8-.9-5.6-1.3-1.8-.4-3.4-.9-4.7-1.5-1.4-.6-2.5-1.3-3.3-2.2s-1.2-2-1.2-3.3.6-2.7,1.7-3.8,2.6-1.9,4.4-2.5,3.8-.9,5.9-.9,5.3.3,7.5,1c2.2.6,4.1,1.5,5.7,2.4,1.6,1,3,2,4.2,3.1l3.8-3.7c-1.1-1-2.5-2.1-4.4-3.3-1.8-1.2-4.1-2.2-6.8-3.1-2.7-.9-5.9-1.3-9.5-1.3s-5.9.4-8.6,1.3c-2.7.9-4.9,2.2-6.6,4s-2.6,4-2.6,6.8.6,4.6,1.7,6.2c1.1,1.6,2.6,2.8,4.4,3.7s3.8,1.6,5.9,2.1,4.2,1,6.1,1.6c2.8.7,5.5,1.4,8,2.1,2.5.7,4.5,1.6,6.1,2.6s2.3,2.4,2.3,4-.6,2.9-1.8,4.1c-1.2,1.2-2.9,2.2-5.2,2.8-2.3.7-5,1-8.3,1s-5.6-.4-8.1-1.3c-2.5-.9-4.8-1.9-6.8-3.2s-3.7-2.5-5.1-3.8l-3.1,4c1.5,1.5,3.4,3,5.7,4.4,2.3,1.4,5,2.6,8,3.5s6.2,1.4,9.7,1.4,7.5-.5,10.7-1.5c3.1-1,5.6-2.5,7.3-4.4,1.8-2,2.7-4.4,2.7-7.3s-.9-5-2.8-6.7l-.3-.2Z"/>
          <path class="cls-1" d="M85.9,191.3c-3-1.1-6.3-2-9.7-2.7-2-.4-3.8-.9-5.6-1.3-1.8-.4-3.4-.9-4.7-1.5-1.4-.6-2.5-1.3-3.3-2.2s-1.2-2-1.2-3.3.6-2.7,1.7-3.8,2.6-1.9,4.4-2.5c1.8-.6,3.8-.9,5.9-.9s5.3.3,7.5,1c2.2.6,4.1,1.5,5.7,2.4,1.6,1,3,2,4.2,3.1l3.8-3.7c-1.1-1-2.5-2.1-4.4-3.3-1.8-1.2-4.1-2.2-6.8-3.1-2.7-.9-5.9-1.3-9.5-1.3s-5.9.4-8.6,1.3c-2.7.9-4.9,2.2-6.6,4-1.7,1.8-2.6,4-2.6,6.8s.6,4.6,1.7,6.2c1.1,1.6,2.6,2.8,4.4,3.7,1.8.9,3.8,1.6,5.9,2.1s4.2,1,6.1,1.6c2.8.7,5.5,1.4,8,2.1,2.5.7,4.5,1.6,6.1,2.6s2.3,2.4,2.3,4-.6,2.9-1.8,4.1c-1.2,1.2-2.9,2.2-5.2,2.8-2.3.7-5,1-8.3,1s-5.6-.4-8.1-1.3c-2.5-.9-4.8-1.9-6.8-3.2s-3.7-2.5-5.1-3.8l-3.1,4c1.5,1.5,3.4,3,5.7,4.4s5,2.6,8,3.5,6.2,1.4,9.7,1.4,7.5-.5,10.7-1.5c3.1-1,5.6-2.5,7.3-4.4,1.8-2,2.7-4.4,2.7-7.3s-.9-5-2.8-6.7-4.3-3.1-7.3-4.1l-.3-.2Z"/>
          <polygon class="cls-1" points="189.9 173.5 192.7 183.5 196.7 183.5 195 169 153.1 169 153.1 173.5 161.1 173.5 161.1 209.4 153.1 209.4 153.1 213.9 196.7 213.9 196.7 199.4 192.7 199.4 191.5 209.4 166.6 209.4 166.6 192.4 184.4 192.8 184.4 188.1 166.6 188.5 166.6 173.5 189.9 173.5"/>
          <path class="cls-1" d="M136.9,191.3c-3-1.1-6.3-2-9.7-2.7-2-.4-3.8-.9-5.6-1.3-1.8-.4-3.4-.9-4.7-1.5-1.4-.6-2.5-1.3-3.3-2.2s-1.2-2-1.2-3.3.6-2.7,1.7-3.8,2.6-1.9,4.4-2.5,3.8-.9,5.9-.9,5.3.3,7.5,1c2.2.6,4.1,1.5,5.7,2.4,1.6,1,3,2,4.2,3.1l3.8-3.7c-1.1-1-2.5-2.1-4.4-3.3s-4.1-2.2-6.8-3.1c-2.7-.9-5.9-1.3-9.5-1.3s-5.9.4-8.6,1.3c-2.7.9-4.9,2.2-6.6,4s-2.6,4-2.6,6.8.6,4.6,1.7,6.2c1.1,1.6,2.6,2.8,4.4,3.7s3.8,1.6,5.9,2.1,4.2,1,6.1,1.6c2.8.7,5.5,1.4,8,2.1,2.5.7,4.5,1.6,6.1,2.6s2.3,2.4,2.3,4-.6,2.9-1.8,4.1c-1.2,1.2-2.9,2.2-5.2,2.8-2.3.7-5,1-8.3,1s-5.6-.4-8.1-1.3c-2.5-.9-4.8-1.9-6.8-3.2s-3.7-2.5-5.1-3.8l-3.1,4c1.5,1.5,3.4,3,5.7,4.4,2.3,1.4,5,2.6,8,3.5s6.2,1.4,9.7,1.4,7.5-.5,10.7-1.5c3.1-1,5.6-2.5,7.3-4.4,1.8-2,2.7-4.4,2.7-7.3s-.9-5-2.8-6.7c-1.9-1.7-4.3-3.1-7.3-4.1l-.3-.2Z"/>
          <path class="cls-1" d="M20.7,169H6.8v4.5l12.2-.7L0,214.8h5.9l5.6-12.8h24.4l5.2,12.8h5.9l-19-45.8h-7.3ZM13.4,197.5l10.7-24.4,9.9,24.4H13.4Z"/>
        </g>
        <g>
          <circle class="cls-2" cx="32.8" cy="24.5" r="24.5"/>
          <path class="cls-2" d="M93.2,266.7c.7-.8,1.4-1.5,2.2-2.1.8-.7,1.6-1.3,2.4-1.9s1.6-1.2,2.4-1.7c1.1-.8,2.3-1.7,3.5-2.7s2.4-2.1,3.5-3.3,2-2.4,2.7-3.8c.7-1.4,1-2.8,1-4.3,0-2.6-.9-4.7-2.7-6.2-1.8-1.5-4.3-2.3-7.4-2.3s-4.7.5-6.6,1.5-3.5,2.3-4.8,3.9c-1.3,1.6-2.3,3.4-2.9,5.3l4.3,2.1c.5-1.3,1.3-2.5,2.2-3.6,1-1.1,2.1-2,3.4-2.7s2.7-1.1,4.2-1.1,2.7.3,3.6,1,1.3,1.6,1.3,2.8-.2,1.6-.7,2.4c-.4.8-1,1.6-1.8,2.4-.7.8-1.6,1.6-2.5,2.4-.9.8-1.9,1.5-2.9,2.2-1.4.9-2.7,1.9-4.1,3.1-1.4,1.1-2.6,2.3-3.8,3.6-1.2,1.2-2.2,2.5-3,3.7s-1.4,2.5-1.6,3.6l1.8,3.4h24.5v-4.9h-20c.5-.9,1.2-1.8,1.9-2.6v-.2Z"/>
          <path class="cls-2" d="M140.5,240.4c-2.1-1.3-4.4-1.9-7.1-1.9s-5,.6-7,1.9c-2.1,1.3-3.7,3.2-4.9,5.9-1.2,2.7-1.8,6.1-1.8,10.3s.5,8,1.7,10.7c1.1,2.7,2.7,4.6,4.7,5.7,2,1.2,4.5,1.7,7.3,1.7s5.3-.6,7.3-1.7c2-1.2,3.6-3.1,4.7-5.7,1.1-2.7,1.7-6.2,1.7-10.7s-.6-7.6-1.8-10.3-2.8-4.6-4.9-5.9h.1ZM140.5,264.5c-.6,1.9-1.5,3.3-2.7,4.1-1.2.8-2.6,1.2-4.4,1.2s-3.2-.4-4.4-1.2c-1.2-.8-2.1-2.2-2.7-4.1s-.9-4.5-.9-7.9.3-5.8,1-7.7,1.6-3.3,2.8-4.2,2.6-1.3,4.1-1.3,2.9.4,4.1,1.3c1.2.9,2.1,2.3,2.8,4.2s1,4.5,1,7.7-.3,5.9-.9,7.9h.2Z"/>
          <path class="cls-2" d="M160.7,266.7c.7-.8,1.4-1.5,2.2-2.1.8-.7,1.6-1.3,2.4-1.9.8-.6,1.6-1.2,2.4-1.7,1.1-.8,2.3-1.7,3.5-2.7s2.4-2.1,3.5-3.3,2-2.4,2.7-3.8c.7-1.4,1-2.8,1-4.3,0-2.6-.9-4.7-2.7-6.2s-4.3-2.3-7.4-2.3-4.7.5-6.6,1.5c-1.9,1-3.5,2.3-4.8,3.9-1.3,1.6-2.3,3.4-2.9,5.3l4.3,2.1c.5-1.3,1.3-2.5,2.2-3.6,1-1.1,2.1-2,3.4-2.7,1.3-.7,2.7-1.1,4.2-1.1s2.7.3,3.6,1c.9.7,1.3,1.6,1.3,2.8s-.2,1.6-.7,2.4c-.4.8-1,1.6-1.8,2.4-.7.8-1.6,1.6-2.5,2.4-.9.8-1.9,1.5-2.9,2.2-1.4.9-2.7,1.9-4.1,3.1-1.4,1.1-2.6,2.3-3.8,3.6-1.2,1.2-2.2,2.5-3,3.7s-1.4,2.5-1.6,3.6l1.8,3.4h24.5v-4.9h-20c.5-.9,1.2-1.8,1.9-2.6v-.2Z"/>
          <path class="cls-2" d="M212.5,253.6c-1.6-1.5-3.9-2.2-6.8-2.2s-4,.4-5.8,1.1c-1.8.8-3.4,1.7-4.9,3-.3.3-.5.6-.8.8l2.3-12h16.4v-5.2h-20.7l-3.7,19.9,5.1,1.9c.7-.8,1.5-1.5,2.5-2.2s2.1-1.3,3.4-1.8c1.2-.5,2.5-.7,3.8-.7,2,0,3.5.5,4.4,1.3,1,.9,1.4,2.1,1.4,3.5s-.5,2.9-1.6,4.4c-1.1,1.4-2.6,2.8-4.6,4.1-1.9,1.3-4.2,2.5-6.7,3.6s-5.3,2.1-8.2,2.9l1.4,4.2c3.4-.9,6.7-2,9.7-3.3,3.1-1.3,5.8-2.8,8.1-4.4,2.4-1.7,4.2-3.6,5.6-5.6,1.3-2.1,2-4.4,2-6.8s-.8-5.1-2.5-6.6h.2Z"/>
        </g>
        <polygon class="cls-1" points="235.9 74.4 198.1 139.8 273.6 139.8 235.9 74.4"/>
        <polygon class="cls-3" points="192.9 0 230.7 65.4 155.2 65.4 192.9 0"/>
        <polygon class="cls-3" points="69.3 65.4 144.8 65.4 107.1 0 69.3 65.4"/>
        <path class="cls-1" d="M144.8,65.4h0L107.1,0l-37.8,65.4h0l-42.9,74.4h75.5l42.9-74.3h0ZM107.1,3.9l34.4,59.5h-68.7L107.1,3.9Z"/>
        <path class="cls-1" d="M230.7,65.4h0L192.9,0l-37.8,65.4h0l-42.9,74.4h75.5l42.9-74.3h.1ZM192.9,3.9l34.4,59.5h-68.7L192.9,3.9Z"/>
      </g>
    </g>
  </g>
</svg>